<mxfile host="65bd71144e">
    <diagram id="lO2k1UXp4sj1cX4oM6pQ" name="ページ1">
        <mxGraphModel dx="2809" dy="2418" grid="1" gridSize="10" guides="1" tooltips="1" connect="1" arrows="1" fold="1" page="1" pageScale="1" pageWidth="827" pageHeight="1169" math="0" shadow="0">
            <root>
                <mxCell id="0"/>
                <mxCell id="1" parent="0"/>
                <mxCell id="6" value="" style="group;strokeColor=none;" vertex="1" connectable="0" parent="1">
                    <mxGeometry x="640" y="1350" width="763" height="2880" as="geometry"/>
                </mxCell>
                <mxCell id="82" value="" style="group" vertex="1" connectable="0" parent="6">
                    <mxGeometry x="12.5" width="750.5" height="2880" as="geometry"/>
                </mxCell>
                <mxCell id="2" value="" style="rounded=0;whiteSpace=wrap;html=1;" vertex="1" parent="82">
                    <mxGeometry y="67.0691906005222" width="747.4906233597574" height="1301.8129895561358" as="geometry"/>
                </mxCell>
                <mxCell id="3" value="&lt;font style=&quot;font-size: 18px;&quot;&gt;&amp;nbsp; &amp;nbsp; &amp;nbsp; 体重管理アプリ&lt;/font&gt;" style="rounded=0;whiteSpace=wrap;html=1;align=left;" vertex="1" parent="82">
                    <mxGeometry x="0.006904198469532812" y="63.05054505131229" width="747.4930958015303" height="144.88714819985879" as="geometry"/>
                </mxCell>
                <mxCell id="4" value="&lt;font style=&quot;font-size: 18px;&quot;&gt;　　 ログアウト&amp;nbsp; &amp;nbsp; &amp;nbsp; &amp;nbsp;　　　&lt;/font&gt;" style="rounded=0;whiteSpace=wrap;html=1;align=right;strokeColor=none;fontColor=default;fillColor=none;" vertex="1" parent="82">
                    <mxGeometry x="385.59720206558023" y="62.72966418635689" width="361.90279793441965" height="144.88714819985879" as="geometry"/>
                </mxCell>
                <mxCell id="53" value="&lt;span style=&quot;font-size: 18px;&quot;&gt;&lt;font style=&quot;color: rgb(0, 0, 255);&quot;&gt;ホーム&lt;/font&gt;&lt;/span&gt;" style="rounded=0;whiteSpace=wrap;html=1;align=center;" vertex="1" parent="82">
                    <mxGeometry x="0.5994530070359328" y="1225.1128518001412" width="168.80414839159866" height="144.88714819985879" as="geometry"/>
                </mxCell>
                <mxCell id="54" value="&lt;font style=&quot;font-size: 18px;&quot;&gt;Ai分析&lt;/font&gt;" style="rounded=0;whiteSpace=wrap;html=1;align=center;" vertex="1" parent="82">
                    <mxGeometry x="169.4036013986346" y="1225.1128518001412" width="202.3337395104778" height="144.88714819985879" as="geometry"/>
                </mxCell>
                <mxCell id="55" value="&lt;span style=&quot;font-size: 18px;&quot;&gt;記録&lt;/span&gt;" style="rounded=0;whiteSpace=wrap;html=1;align=center;" vertex="1" parent="82">
                    <mxGeometry x="371.7373409091124" y="1225.1128518001412" width="187.88132954544372" height="144.88714819985879" as="geometry"/>
                </mxCell>
                <mxCell id="56" value="&lt;span style=&quot;font-size: 18px;&quot;&gt;マイページ&lt;/span&gt;" style="rounded=0;whiteSpace=wrap;html=1;align=center;" vertex="1" parent="82">
                    <mxGeometry x="559.6186704545562" y="1225.1128518001412" width="187.88132954544372" height="144.88714819985879" as="geometry"/>
                </mxCell>
                <mxCell id="57" value="&lt;font style=&quot;font-size: 34px;&quot;&gt;ホーム(直近の記録)　&amp;nbsp; &amp;nbsp; &amp;nbsp; &amp;nbsp; &amp;nbsp; &amp;nbsp;目標体重：50kg&lt;/font&gt;" style="rounded=0;whiteSpace=wrap;html=1;align=left;fillColor=none;strokeColor=none;" vertex="1" parent="82">
                    <mxGeometry x="10.42" y="232.61" width="709.58" height="92.49" as="geometry"/>
                </mxCell>
                <mxCell id="62" value="" style="group" vertex="1" connectable="0" parent="82">
                    <mxGeometry x="24.87841317686379" y="347.64197127937337" width="725.6215868231362" height="2532.358028720627" as="geometry"/>
                </mxCell>
                <mxCell id="58" value="" style="rounded=0;whiteSpace=wrap;html=1;align=left;" vertex="1" parent="62">
                    <mxGeometry width="693.7130433612841" height="176.20040490372065" as="geometry"/>
                </mxCell>
                <mxCell id="59" value="&lt;font style=&quot;font-size: 24px;&quot;&gt;体重&amp;nbsp; &amp;nbsp;&lt;/font&gt;&lt;span style=&quot;font-size: 24px; background-color: transparent;&quot;&gt;09/03(水)&lt;/span&gt;" style="rounded=0;whiteSpace=wrap;html=1;align=left;fillColor=none;strokeColor=none;" vertex="1" parent="62">
                    <mxGeometry width="289.0471014005351" height="72.55310790153202" as="geometry"/>
                </mxCell>
                <mxCell id="60" value="&lt;span style=&quot;font-size: 24px;&quot;&gt;→&lt;/span&gt;" style="rounded=0;whiteSpace=wrap;html=1;align=center;fillColor=none;strokeColor=none;verticalAlign=top;" vertex="1" parent="62">
                    <mxGeometry x="621.4512680111504" width="72.26177535013377" height="72.55310790153202" as="geometry"/>
                </mxCell>
                <mxCell id="63" value="&lt;font style=&quot;font-size: 50px;&quot;&gt;60.0&amp;nbsp; &amp;nbsp;&lt;/font&gt;&lt;font style=&quot;font-size: 32px;&quot;&gt;kg&lt;/font&gt;" style="rounded=0;whiteSpace=wrap;html=1;align=left;fillColor=none;strokeColor=none;" vertex="1" parent="62">
                    <mxGeometry y="55.408932359660575" width="274.5947463305083" height="120.79147254406007" as="geometry"/>
                </mxCell>
                <mxCell id="251" value="" style="group;strokeColor=none;" vertex="1" connectable="0" parent="62">
                    <mxGeometry x="-44.74841317686378" y="1162.3580287206266" width="763" height="1370" as="geometry"/>
                </mxCell>
                <mxCell id="252" value="" style="group" vertex="1" connectable="0" parent="251">
                    <mxGeometry x="12.5" width="747.5" height="1370" as="geometry"/>
                </mxCell>
                <mxCell id="253" value="" style="rounded=0;whiteSpace=wrap;html=1;" vertex="1" parent="252">
                    <mxGeometry y="67.0691906005222" width="747.4906233597574" height="1301.8129895561358" as="geometry"/>
                </mxCell>
                <mxCell id="254" value="&lt;font style=&quot;font-size: 18px;&quot;&gt;&amp;nbsp; &amp;nbsp; &amp;nbsp; 体重管理アプリ&lt;/font&gt;" style="rounded=0;whiteSpace=wrap;html=1;align=left;" vertex="1" parent="252">
                    <mxGeometry x="0.006904198469532812" y="63.05054505131229" width="747.4930958015303" height="144.88714819985879" as="geometry"/>
                </mxCell>
                <mxCell id="255" value="&lt;font style=&quot;font-size: 18px;&quot;&gt;　　 ログアウト&amp;nbsp; &amp;nbsp; &amp;nbsp; &amp;nbsp;　　　&lt;/font&gt;" style="rounded=0;whiteSpace=wrap;html=1;align=right;strokeColor=none;fontColor=default;fillColor=none;" vertex="1" parent="252">
                    <mxGeometry x="385.59720206558023" y="62.72966418635689" width="361.90279793441965" height="144.88714819985879" as="geometry"/>
                </mxCell>
                <mxCell id="256" value="&lt;span style=&quot;font-size: 18px;&quot;&gt;&lt;font style=&quot;color: rgb(26, 26, 26);&quot;&gt;ホーム&lt;/font&gt;&lt;/span&gt;" style="rounded=0;whiteSpace=wrap;html=1;align=center;" vertex="1" parent="252">
                    <mxGeometry x="0.5994530070359328" y="1225.1128518001412" width="168.80414839159866" height="144.88714819985879" as="geometry"/>
                </mxCell>
                <mxCell id="257" value="&lt;font style=&quot;font-size: 18px; color: rgb(0, 0, 255);&quot;&gt;Ai分析&lt;/font&gt;" style="rounded=0;whiteSpace=wrap;html=1;align=center;" vertex="1" parent="252">
                    <mxGeometry x="169.4036013986346" y="1225.1128518001412" width="202.3337395104778" height="144.88714819985879" as="geometry"/>
                </mxCell>
                <mxCell id="258" value="&lt;span style=&quot;font-size: 18px;&quot;&gt;記録&lt;/span&gt;" style="rounded=0;whiteSpace=wrap;html=1;align=center;" vertex="1" parent="252">
                    <mxGeometry x="371.7373409091124" y="1225.1128518001412" width="187.88132954544372" height="144.88714819985879" as="geometry"/>
                </mxCell>
                <mxCell id="259" value="&lt;span style=&quot;font-size: 18px;&quot;&gt;マイページ&lt;/span&gt;" style="rounded=0;whiteSpace=wrap;html=1;align=center;" vertex="1" parent="252">
                    <mxGeometry x="559.6186704545562" y="1225.1128518001412" width="187.88132954544372" height="144.88714819985879" as="geometry"/>
                </mxCell>
                <mxCell id="260" value="&lt;font style=&quot;font-size: 34px;&quot;&gt;AIによる分析&lt;/font&gt;" style="rounded=0;whiteSpace=wrap;html=1;align=left;fillColor=none;strokeColor=none;" vertex="1" parent="252">
                    <mxGeometry x="24.881438674800346" y="232.6071312010444" width="547.605951358835" height="92.4884138381201" as="geometry"/>
                </mxCell>
                <mxCell id="261" value="" style="group" vertex="1" connectable="0" parent="252">
                    <mxGeometry x="24.87841317686379" y="347.64197127937337" width="693.7130433612841" height="177.30858355091385" as="geometry"/>
                </mxCell>
                <mxCell id="262" value="" style="rounded=0;whiteSpace=wrap;html=1;align=left;" vertex="1" parent="261">
                    <mxGeometry width="693.7130433612841" height="176.20040490372065" as="geometry"/>
                </mxCell>
                <mxCell id="263" value="&lt;font style=&quot;font-size: 32px;&quot;&gt;体重変化予測 &amp;amp; 目標達成可能性評価&lt;/font&gt;" style="rounded=0;whiteSpace=wrap;html=1;align=left;fillColor=none;strokeColor=none;" vertex="1" parent="261">
                    <mxGeometry width="620" height="50" as="geometry"/>
                </mxCell>
                <mxCell id="265" value="&lt;div&gt;&lt;font style=&quot;font-size: 28px;&quot;&gt;未来を見せてモチベーションを維持させる&lt;/font&gt;&lt;/div&gt;&lt;font style=&quot;font-size: 28px;&quot;&gt;直近から1か月前の体重や、食事、運動の記録から分析し、評価する&lt;/font&gt;" style="rounded=0;whiteSpace=wrap;html=1;align=left;fillColor=none;strokeColor=none;" vertex="1" parent="261">
                    <mxGeometry y="55.41" width="690" height="120.79" as="geometry"/>
                </mxCell>
                <mxCell id="266" value="" style="group" vertex="1" connectable="0" parent="252">
                    <mxGeometry x="26.90357218175408" y="571.2059399477807" width="693.7130433612841" height="177.73335509138383" as="geometry"/>
                </mxCell>
                <mxCell id="267" value="" style="rounded=0;whiteSpace=wrap;html=1;align=left;" vertex="1" parent="266">
                    <mxGeometry width="693.7104084109384" height="171.04060384345328" as="geometry"/>
                </mxCell>
                <mxCell id="268" value="&lt;font style=&quot;font-size: 32px;&quot;&gt;運動・食事・睡眠の傾向分析&lt;/font&gt;" style="rounded=0;whiteSpace=wrap;html=1;align=left;fillColor=none;strokeColor=none;" vertex="1" parent="266">
                    <mxGeometry width="480" height="53.92" as="geometry"/>
                </mxCell>
                <mxCell id="270" value="&lt;div style=&quot;forced-color-adjust: none; color: rgb(63, 63, 63); scrollbar-color: rgb(226, 226, 226) rgb(251, 251, 251); font-family: Helvetica; font-style: normal; font-variant-ligatures: normal; font-variant-caps: normal; font-weight: 400; letter-spacing: normal; orphans: 2; text-align: left; text-indent: 0px; text-transform: none; widows: 2; word-spacing: 0px; -webkit-text-stroke-width: 0px; white-space: normal; background-color: rgb(251, 251, 251); text-decoration-thickness: initial; text-decoration-style: initial; text-decoration-color: initial;&quot;&gt;&lt;span style=&quot;forced-color-adjust: none; color: rgb(63, 63, 63); scrollbar-color: rgb(226, 226, 226) rgb(251, 251, 251); background-color: transparent;&quot;&gt;&lt;font style=&quot;font-size: 28px;&quot;&gt;ユーザーの習慣を客観的に示す&lt;/font&gt;&lt;/span&gt;&lt;/div&gt;&lt;div&gt;&lt;font style=&quot;font-size: 28px;&quot;&gt;「過去7日間、平均睡眠時間は 5.6時間です。やや不足気味なので休養を意識しましょう」&lt;/font&gt;&lt;/div&gt;" style="rounded=0;whiteSpace=wrap;html=1;align=left;fillColor=none;strokeColor=none;" vertex="1" parent="266">
                    <mxGeometry y="55.54" width="690" height="121.08" as="geometry"/>
                </mxCell>
                <mxCell id="271" value="" style="group" vertex="1" connectable="0" parent="252">
                    <mxGeometry x="26.903572181754054" y="783.5917101827677" width="693.7130433612841" height="177.73335509138383" as="geometry"/>
                </mxCell>
                <mxCell id="272" value="" style="rounded=0;whiteSpace=wrap;html=1;align=left;" vertex="1" parent="271">
                    <mxGeometry width="693.7104084109384" height="171.04060384345328" as="geometry"/>
                </mxCell>
                <mxCell id="273" value="&lt;font style=&quot;font-size: 32px;&quot;&gt;異常値検知（急激な増減や危険なBMI）&lt;/font&gt;" style="rounded=0;whiteSpace=wrap;html=1;align=left;fillColor=none;strokeColor=none;" vertex="1" parent="271">
                    <mxGeometry width="600" height="53.91" as="geometry"/>
                </mxCell>
                <mxCell id="275" value="&lt;font style=&quot;font-size: 28px;&quot;&gt;リスクを注意喚起&lt;/font&gt;&lt;div&gt;&lt;font style=&quot;font-size: 28px;&quot;&gt;「昨日から +2.3kg 増加しています。急な体重増加は水分や食事量の影響かもしれません」&lt;/font&gt;&lt;/div&gt;" style="rounded=0;whiteSpace=wrap;html=1;align=left;fillColor=none;strokeColor=none;" vertex="1" parent="271">
                    <mxGeometry y="55.54" width="690" height="121.08" as="geometry"/>
                </mxCell>
                <mxCell id="276" value="" style="group" vertex="1" connectable="0" parent="252">
                    <mxGeometry x="24.878413176863774" y="1007.1556788511749" width="693.7130433612841" height="177.73335509138383" as="geometry"/>
                </mxCell>
                <mxCell id="277" value="" style="rounded=0;whiteSpace=wrap;html=1;align=left;" vertex="1" parent="276">
                    <mxGeometry width="693.7104084109384" height="171.04060384345328" as="geometry"/>
                </mxCell>
                <mxCell id="278" value="&lt;font style=&quot;font-size: 28px;&quot;&gt;モチベーションコメント&lt;/font&gt;" style="rounded=0;whiteSpace=wrap;html=1;align=left;fillColor=none;strokeColor=none;" vertex="1" parent="276">
                    <mxGeometry width="354.77238041873505" height="53.91245104438642" as="geometry"/>
                </mxCell>
                <mxCell id="280" value="&lt;font style=&quot;font-size: 28px;&quot;&gt;感情を動かす（続けたくなる一言）&lt;/font&gt;&lt;div&gt;&lt;font style=&quot;font-size: 28px;&quot;&gt;「昨日より -0.4kg！小さな積み重ねが確実に成果につながっています 👏」&lt;/font&gt;&lt;/div&gt;" style="rounded=0;whiteSpace=wrap;html=1;align=left;fillColor=none;strokeColor=none;" vertex="1" parent="276">
                    <mxGeometry y="55.54" width="630" height="121.08" as="geometry"/>
                </mxCell>
                <mxCell id="281" value="&lt;font style=&quot;font-size: 24px;&quot;&gt;AI分析&lt;/font&gt;" style="text;html=1;align=center;verticalAlign=middle;resizable=0;points=[];autosize=1;strokeColor=none;fillColor=none;" vertex="1" parent="252">
                    <mxGeometry x="25.60606948321546" width="90" height="40" as="geometry"/>
                </mxCell>
                <mxCell id="65" value="" style="group" vertex="1" connectable="0" parent="82">
                    <mxGeometry x="26.90357218175408" y="571.2059399477807" width="693.7130433612841" height="177.73335509138383" as="geometry"/>
                </mxCell>
                <mxCell id="66" value="" style="rounded=0;whiteSpace=wrap;html=1;align=left;" vertex="1" parent="65">
                    <mxGeometry width="693.7104084109384" height="171.04060384345328" as="geometry"/>
                </mxCell>
                <mxCell id="67" value="&lt;font style=&quot;font-size: 24px;&quot;&gt;BMI&amp;nbsp; &amp;nbsp;&lt;/font&gt;&lt;span style=&quot;font-size: 24px; background-color: transparent;&quot;&gt;09/03(水)&lt;/span&gt;" style="rounded=0;whiteSpace=wrap;html=1;align=left;fillColor=none;strokeColor=none;" vertex="1" parent="65">
                    <mxGeometry width="289.0507969461644" height="53.915775850563875" as="geometry"/>
                </mxCell>
                <mxCell id="68" value="&lt;span style=&quot;font-size: 24px;&quot;&gt;→&lt;/span&gt;" style="rounded=0;whiteSpace=wrap;html=1;align=center;fillColor=none;strokeColor=none;verticalAlign=top;" vertex="1" parent="65">
                    <mxGeometry x="621.4512680111504" width="72.26177535013377" height="72.72692066790812" as="geometry"/>
                </mxCell>
                <mxCell id="69" value="&lt;font style=&quot;font-size: 50px;&quot;&gt;22.00&amp;nbsp; &amp;nbsp;&lt;/font&gt;" style="rounded=0;whiteSpace=wrap;html=1;align=left;fillColor=none;strokeColor=none;" vertex="1" parent="65">
                    <mxGeometry y="55.54167346605743" width="274.5947463305083" height="121.08084815600522" as="geometry"/>
                </mxCell>
                <mxCell id="70" value="" style="group" vertex="1" connectable="0" parent="82">
                    <mxGeometry x="26.903572181754054" y="783.5917101827677" width="693.7130433612841" height="177.73335509138383" as="geometry"/>
                </mxCell>
                <mxCell id="71" value="" style="rounded=0;whiteSpace=wrap;html=1;align=left;" vertex="1" parent="70">
                    <mxGeometry width="693.7104084109384" height="171.04060384345328" as="geometry"/>
                </mxCell>
                <mxCell id="72" value="&lt;font style=&quot;font-size: 24px;&quot;&gt;体脂肪率&amp;nbsp; &amp;nbsp;&lt;/font&gt;&lt;span style=&quot;font-size: 24px; background-color: transparent;&quot;&gt;09/03(水)&lt;/span&gt;" style="rounded=0;whiteSpace=wrap;html=1;align=left;fillColor=none;strokeColor=none;" vertex="1" parent="70">
                    <mxGeometry width="384.33674545362965" height="53.91245104438642" as="geometry"/>
                </mxCell>
                <mxCell id="73" value="&lt;span style=&quot;font-size: 24px;&quot;&gt;→&lt;/span&gt;" style="rounded=0;whiteSpace=wrap;html=1;align=center;fillColor=none;strokeColor=none;verticalAlign=top;" vertex="1" parent="70">
                    <mxGeometry x="621.4512680111504" width="72.26177535013377" height="72.72692066790812" as="geometry"/>
                </mxCell>
                <mxCell id="74" value="&lt;font style=&quot;font-size: 50px;&quot;&gt;16.8&amp;nbsp; &amp;nbsp;&lt;/font&gt;&lt;font style=&quot;font-size: 30px;&quot;&gt;%&lt;/font&gt;&lt;font style=&quot;font-size: 50px;&quot;&gt;&amp;nbsp; &amp;nbsp;&lt;/font&gt;" style="rounded=0;whiteSpace=wrap;html=1;align=left;fillColor=none;strokeColor=none;" vertex="1" parent="70">
                    <mxGeometry y="55.54446801566579" width="354.77238041873505" height="121.0822454308094" as="geometry"/>
                </mxCell>
                <mxCell id="75" value="" style="group" vertex="1" connectable="0" parent="82">
                    <mxGeometry x="24.878413176863774" y="1007.1556788511749" width="693.7130433612841" height="177.73335509138383" as="geometry"/>
                </mxCell>
                <mxCell id="76" value="" style="rounded=0;whiteSpace=wrap;html=1;align=left;" vertex="1" parent="75">
                    <mxGeometry width="693.7104084109384" height="171.04060384345328" as="geometry"/>
                </mxCell>
                <mxCell id="77" value="&lt;font style=&quot;font-size: 24px;&quot;&gt;睡眠時間&amp;nbsp; &amp;nbsp;&lt;/font&gt;&lt;span style=&quot;font-size: 24px; background-color: transparent;&quot;&gt;09/03(水)&lt;/span&gt;" style="rounded=0;whiteSpace=wrap;html=1;align=left;fillColor=none;strokeColor=none;" vertex="1" parent="75">
                    <mxGeometry width="354.77238041873505" height="53.91245104438642" as="geometry"/>
                </mxCell>
                <mxCell id="78" value="&lt;span style=&quot;font-size: 24px;&quot;&gt;→&lt;/span&gt;" style="rounded=0;whiteSpace=wrap;html=1;align=center;fillColor=none;strokeColor=none;verticalAlign=top;" vertex="1" parent="75">
                    <mxGeometry x="621.4512680111504" width="72.26177535013377" height="72.72692066790812" as="geometry"/>
                </mxCell>
                <mxCell id="79" value="&lt;font style=&quot;font-size: 50px;&quot;&gt;7時間00分&lt;/font&gt;" style="rounded=0;whiteSpace=wrap;html=1;align=left;fillColor=none;strokeColor=none;" vertex="1" parent="75">
                    <mxGeometry y="55.54446801566579" width="458.2476580408661" height="121.0822454308094" as="geometry"/>
                </mxCell>
                <mxCell id="5" value="&lt;font style=&quot;font-size: 24px;&quot;&gt;ホーム画面&lt;/font&gt;" style="text;html=1;align=center;verticalAlign=middle;resizable=0;points=[];autosize=1;strokeColor=none;fillColor=none;" vertex="1" parent="82">
                    <mxGeometry x="0.6060694832154601" width="140" height="40" as="geometry"/>
                </mxCell>
                <mxCell id="17" value="" style="group" vertex="1" connectable="0" parent="1">
                    <mxGeometry x="620" y="-120" width="770.73" height="1170" as="geometry"/>
                </mxCell>
                <mxCell id="7" value="" style="group" vertex="1" connectable="0" parent="17">
                    <mxGeometry width="770.73" height="1170" as="geometry"/>
                </mxCell>
                <mxCell id="8" value="" style="rounded=0;whiteSpace=wrap;html=1;" vertex="1" parent="7">
                    <mxGeometry x="12.63" y="50.54" width="758.1" height="1119.46" as="geometry"/>
                </mxCell>
                <mxCell id="32" value="&lt;div style=&quot;&quot;&gt;&lt;font style=&quot;font-size: 20px;&quot;&gt;メールアドレス&lt;/font&gt;&lt;/div&gt;" style="rounded=0;whiteSpace=wrap;html=1;align=left;verticalAlign=top;strokeColor=none;fillColor=none;" vertex="1" parent="7">
                    <mxGeometry x="110" y="190" width="160" height="40" as="geometry"/>
                </mxCell>
                <mxCell id="33" value="&lt;div style=&quot;&quot;&gt;&lt;span style=&quot;font-size: 30px;&quot;&gt;example@example.com&lt;/span&gt;&lt;/div&gt;&lt;div style=&quot;&quot;&gt;&lt;span style=&quot;background-color: transparent;&quot;&gt;&lt;font style=&quot;font-size: 30px;&quot;&gt;&lt;br&gt;&lt;/font&gt;&lt;/span&gt;&lt;/div&gt;" style="rounded=0;whiteSpace=wrap;html=1;align=left;verticalAlign=top;strokeColor=default;" vertex="1" parent="7">
                    <mxGeometry x="110" y="230" width="580" height="50" as="geometry"/>
                </mxCell>
                <mxCell id="34" value="&lt;div style=&quot;&quot;&gt;&lt;span style=&quot;background-color: transparent;&quot;&gt;&lt;font style=&quot;font-size: 30px;&quot;&gt;新規登録&lt;/font&gt;&lt;/span&gt;&lt;/div&gt;&lt;div style=&quot;&quot;&gt;&lt;span style=&quot;background-color: transparent;&quot;&gt;&lt;font style=&quot;font-size: 30px;&quot;&gt;&lt;br&gt;&lt;/font&gt;&lt;/span&gt;&lt;/div&gt;" style="rounded=0;whiteSpace=wrap;html=1;align=center;verticalAlign=top;strokeColor=none;" vertex="1" parent="7">
                    <mxGeometry x="280.0000000000001" y="120" width="170" height="50" as="geometry"/>
                </mxCell>
                <mxCell id="38" value="&lt;div style=&quot;&quot;&gt;&lt;font style=&quot;font-size: 32px;&quot;&gt;性別&lt;/font&gt;&lt;/div&gt;" style="rounded=0;whiteSpace=wrap;html=1;align=left;verticalAlign=top;strokeColor=none;fillColor=none;" vertex="1" parent="7">
                    <mxGeometry x="120" y="535" width="112.5" height="60" as="geometry"/>
                </mxCell>
                <mxCell id="39" value="&lt;div style=&quot;&quot;&gt;&lt;span style=&quot;font-size: 30px;&quot;&gt;○ 男　○ 女&lt;/span&gt;&lt;/div&gt;&lt;div style=&quot;&quot;&gt;&lt;span style=&quot;background-color: transparent;&quot;&gt;&lt;font style=&quot;font-size: 30px;&quot;&gt;&lt;br&gt;&lt;/font&gt;&lt;/span&gt;&lt;/div&gt;" style="rounded=0;whiteSpace=wrap;html=1;align=left;verticalAlign=top;strokeColor=none;" vertex="1" parent="7">
                    <mxGeometry x="520" y="540" width="170" height="50" as="geometry"/>
                </mxCell>
                <mxCell id="40" value="&lt;div style=&quot;&quot;&gt;&lt;font style=&quot;font-size: 32px;&quot;&gt;生年月日&lt;/font&gt;&lt;/div&gt;" style="rounded=0;whiteSpace=wrap;html=1;align=left;verticalAlign=top;strokeColor=none;fillColor=none;" vertex="1" parent="7">
                    <mxGeometry x="120" y="640" width="160" height="40" as="geometry"/>
                </mxCell>
                <mxCell id="41" value="&lt;div style=&quot;&quot;&gt;&lt;span style=&quot;font-size: 30px;&quot;&gt;YYYY年MM月DD日&lt;/span&gt;&lt;/div&gt;" style="rounded=0;whiteSpace=wrap;html=1;align=left;verticalAlign=top;strokeColor=default;" vertex="1" parent="7">
                    <mxGeometry x="410" y="635" width="280" height="50" as="geometry"/>
                </mxCell>
                <mxCell id="42" value="&lt;div style=&quot;&quot;&gt;&lt;font style=&quot;font-size: 32px;&quot;&gt;目標体重&lt;/font&gt;&lt;/div&gt;" style="rounded=0;whiteSpace=wrap;html=1;align=left;verticalAlign=top;strokeColor=none;fillColor=none;" vertex="1" parent="7">
                    <mxGeometry x="110" y="740" width="160" height="40" as="geometry"/>
                </mxCell>
                <mxCell id="43" value="&lt;div style=&quot;&quot;&gt;&lt;span style=&quot;font-size: 30px;&quot;&gt;50&lt;/span&gt;&lt;/div&gt;" style="rounded=0;whiteSpace=wrap;html=1;align=center;verticalAlign=top;strokeColor=default;" vertex="1" parent="7">
                    <mxGeometry x="550" y="740" width="80" height="50" as="geometry"/>
                </mxCell>
                <mxCell id="46" value="&lt;div style=&quot;&quot;&gt;&lt;span style=&quot;font-size: 30px;&quot;&gt;登録する&lt;/span&gt;&lt;/div&gt;" style="rounded=0;whiteSpace=wrap;html=1;align=center;verticalAlign=top;strokeColor=default;" vertex="1" parent="7">
                    <mxGeometry x="280.36" y="1060" width="210" height="50" as="geometry"/>
                </mxCell>
                <mxCell id="47" value="&lt;div style=&quot;&quot;&gt;&lt;span style=&quot;font-size: 20px; background-color: transparent;&quot;&gt;&lt;font style=&quot;color: rgb(255, 0, 0);&quot;&gt;メールの送信に失敗しました&lt;/font&gt;&lt;/span&gt;&lt;/div&gt;&lt;div style=&quot;&quot;&gt;&lt;font style=&quot;font-size: 20px; color: rgb(0, 153, 0);&quot;&gt;メールを送信しました&lt;/font&gt;&lt;/div&gt;" style="rounded=0;whiteSpace=wrap;html=1;align=center;verticalAlign=top;strokeColor=none;fillColor=none;" vertex="1" parent="7">
                    <mxGeometry x="241.2" y="970" width="288.32" height="60" as="geometry"/>
                </mxCell>
                <mxCell id="48" value="&lt;div style=&quot;&quot;&gt;&lt;font style=&quot;font-size: 20px;&quot;&gt;パスワード&lt;/font&gt;&lt;/div&gt;" style="rounded=0;whiteSpace=wrap;html=1;align=left;verticalAlign=top;strokeColor=none;fillColor=none;" vertex="1" parent="7">
                    <mxGeometry x="110" y="300" width="160" height="40" as="geometry"/>
                </mxCell>
                <mxCell id="49" value="&lt;div style=&quot;&quot;&gt;&lt;br&gt;&lt;/div&gt;" style="rounded=0;whiteSpace=wrap;html=1;align=left;verticalAlign=top;strokeColor=default;" vertex="1" parent="7">
                    <mxGeometry x="110" y="340" width="580" height="50" as="geometry"/>
                </mxCell>
                <mxCell id="50" value="&lt;div style=&quot;&quot;&gt;&lt;font style=&quot;font-size: 20px;&quot;&gt;パスワード再入力&lt;/font&gt;&lt;/div&gt;" style="rounded=0;whiteSpace=wrap;html=1;align=left;verticalAlign=top;strokeColor=none;fillColor=none;" vertex="1" parent="7">
                    <mxGeometry x="110" y="420" width="190" height="40" as="geometry"/>
                </mxCell>
                <mxCell id="51" value="&lt;div style=&quot;&quot;&gt;&lt;br&gt;&lt;/div&gt;" style="rounded=0;whiteSpace=wrap;html=1;align=left;verticalAlign=top;strokeColor=default;" vertex="1" parent="7">
                    <mxGeometry x="110" y="460" width="580" height="50" as="geometry"/>
                </mxCell>
                <mxCell id="655" value="&lt;font style=&quot;font-size: 33px;&quot;&gt;kg&lt;/font&gt;" style="text;html=1;align=center;verticalAlign=middle;resizable=0;points=[];autosize=1;strokeColor=none;fillColor=none;" vertex="1" parent="7">
                    <mxGeometry x="640" y="740" width="60" height="50" as="geometry"/>
                </mxCell>
                <mxCell id="11" value="&lt;font style=&quot;font-size: 24px;&quot;&gt;新規登録画面&lt;/font&gt;" style="text;html=1;align=center;verticalAlign=middle;resizable=0;points=[];autosize=1;strokeColor=none;fillColor=none;" vertex="1" parent="17">
                    <mxGeometry width="170" height="40" as="geometry"/>
                </mxCell>
                <mxCell id="18" value="" style="group" vertex="1" connectable="0" parent="1">
                    <mxGeometry x="1440" y="-120" width="770.73" height="796" as="geometry"/>
                </mxCell>
                <mxCell id="19" value="" style="group" vertex="1" connectable="0" parent="18">
                    <mxGeometry width="770.73" height="796" as="geometry"/>
                </mxCell>
                <mxCell id="20" value="" style="rounded=0;whiteSpace=wrap;html=1;" vertex="1" parent="19">
                    <mxGeometry x="12.634918032786885" y="50.53968253968254" width="758.0950819672131" height="745.4603174603175" as="geometry"/>
                </mxCell>
                <mxCell id="26" value="&lt;div style=&quot;&quot;&gt;&lt;span style=&quot;background-color: transparent;&quot;&gt;&lt;font style=&quot;font-size: 30px;&quot;&gt;ログイン&lt;/font&gt;&lt;/span&gt;&lt;/div&gt;&lt;div style=&quot;&quot;&gt;&lt;span style=&quot;background-color: transparent;&quot;&gt;&lt;font style=&quot;font-size: 30px;&quot;&gt;&lt;br&gt;&lt;/font&gt;&lt;/span&gt;&lt;/div&gt;" style="rounded=0;whiteSpace=wrap;html=1;align=center;verticalAlign=top;strokeColor=none;" vertex="1" parent="19">
                    <mxGeometry x="306.68" y="120" width="170" height="50" as="geometry"/>
                </mxCell>
                <mxCell id="27" value="&lt;div style=&quot;&quot;&gt;&lt;span style=&quot;font-size: 30px;&quot;&gt;example@example.com&lt;/span&gt;&lt;/div&gt;&lt;div style=&quot;&quot;&gt;&lt;span style=&quot;background-color: transparent;&quot;&gt;&lt;font style=&quot;font-size: 30px;&quot;&gt;&lt;br&gt;&lt;/font&gt;&lt;/span&gt;&lt;/div&gt;" style="rounded=0;whiteSpace=wrap;html=1;align=left;verticalAlign=top;strokeColor=default;" vertex="1" parent="19">
                    <mxGeometry x="130" y="280" width="580" height="50" as="geometry"/>
                </mxCell>
                <mxCell id="28" value="&lt;div style=&quot;&quot;&gt;&lt;font style=&quot;font-size: 20px;&quot;&gt;メールアドレス&lt;/font&gt;&lt;/div&gt;" style="rounded=0;whiteSpace=wrap;html=1;align=left;verticalAlign=top;strokeColor=none;fillColor=none;" vertex="1" parent="19">
                    <mxGeometry x="130" y="240" width="160" height="40" as="geometry"/>
                </mxCell>
                <mxCell id="29" value="&lt;div style=&quot;&quot;&gt;&lt;font style=&quot;font-size: 20px;&quot;&gt;パスワード&lt;/font&gt;&lt;/div&gt;" style="rounded=0;whiteSpace=wrap;html=1;align=left;verticalAlign=top;strokeColor=none;fillColor=none;" vertex="1" parent="19">
                    <mxGeometry x="130" y="390" width="160" height="40" as="geometry"/>
                </mxCell>
                <mxCell id="30" value="&lt;div style=&quot;&quot;&gt;&lt;span style=&quot;font-size: 30px;&quot;&gt;パスワード&lt;/span&gt;&lt;/div&gt;&lt;div style=&quot;&quot;&gt;&lt;span style=&quot;background-color: transparent;&quot;&gt;&lt;font style=&quot;font-size: 30px;&quot;&gt;&lt;br&gt;&lt;/font&gt;&lt;/span&gt;&lt;/div&gt;" style="rounded=0;whiteSpace=wrap;html=1;align=left;verticalAlign=top;strokeColor=default;" vertex="1" parent="19">
                    <mxGeometry x="130" y="430" width="580" height="50" as="geometry"/>
                </mxCell>
                <mxCell id="35" value="&lt;div style=&quot;&quot;&gt;&lt;font style=&quot;font-size: 20px;&quot;&gt;パスワードを忘れた方&lt;/font&gt;&lt;/div&gt;" style="rounded=0;whiteSpace=wrap;html=1;align=left;verticalAlign=top;strokeColor=none;fillColor=none;" vertex="1" parent="19">
                    <mxGeometry x="490" y="500" width="220" height="40" as="geometry"/>
                </mxCell>
                <mxCell id="36" value="&lt;div style=&quot;&quot;&gt;&lt;span style=&quot;font-size: 30px;&quot;&gt;ログイン&lt;/span&gt;&lt;/div&gt;&lt;div style=&quot;&quot;&gt;&lt;span style=&quot;background-color: transparent;&quot;&gt;&lt;font style=&quot;font-size: 30px;&quot;&gt;&lt;br&gt;&lt;/font&gt;&lt;/span&gt;&lt;/div&gt;" style="rounded=0;whiteSpace=wrap;html=1;align=center;verticalAlign=top;strokeColor=default;" vertex="1" parent="19">
                    <mxGeometry x="315.3600000000001" y="670" width="140" height="50" as="geometry"/>
                </mxCell>
                <mxCell id="37" value="&lt;div style=&quot;&quot;&gt;&lt;font style=&quot;font-size: 20px;&quot;&gt;メール認証を行ってください&lt;/font&gt;&lt;/div&gt;&lt;div style=&quot;&quot;&gt;&lt;font style=&quot;font-size: 20px; color: rgb(255, 0, 0);&quot;&gt;メールを再送信する&lt;/font&gt;&lt;/div&gt;&lt;div style=&quot;&quot;&gt;&lt;font style=&quot;font-size: 20px; color: rgb(0, 153, 0);&quot;&gt;メールを再送信しました&lt;/font&gt;&lt;/div&gt;" style="rounded=0;whiteSpace=wrap;html=1;align=center;verticalAlign=top;strokeColor=none;fillColor=none;" vertex="1" parent="19">
                    <mxGeometry x="247.52" y="540" width="288.32" height="90" as="geometry"/>
                </mxCell>
                <mxCell id="21" value="&lt;font style=&quot;font-size: 24px;&quot;&gt;ログイン画面&lt;/font&gt;" style="text;html=1;align=center;verticalAlign=middle;resizable=0;points=[];autosize=1;strokeColor=none;fillColor=none;" vertex="1" parent="18">
                    <mxGeometry width="170" height="40" as="geometry"/>
                </mxCell>
                <mxCell id="83" value="" style="group;strokeColor=none;" vertex="1" connectable="0" parent="1">
                    <mxGeometry x="1452.63" y="1348.88" width="763" height="1370" as="geometry"/>
                </mxCell>
                <mxCell id="84" value="" style="group" vertex="1" connectable="0" parent="83">
                    <mxGeometry x="12.5" width="750" height="1370" as="geometry"/>
                </mxCell>
                <mxCell id="85" value="" style="rounded=0;whiteSpace=wrap;html=1;" vertex="1" parent="84">
                    <mxGeometry y="67.0691906005222" width="747.4906233597574" height="1301.8129895561358" as="geometry"/>
                </mxCell>
                <mxCell id="87" value="&lt;font style=&quot;font-size: 37px;&quot;&gt;　←　　　　　　　体重&lt;/font&gt;" style="rounded=0;whiteSpace=wrap;html=1;align=left;strokeColor=none;fontColor=default;fillColor=none;" vertex="1" parent="84">
                    <mxGeometry y="71.12" width="750" height="144.89" as="geometry"/>
                </mxCell>
                <mxCell id="113" value="&lt;font style=&quot;font-size: 24px;&quot;&gt;グラフ(詳細)&lt;/font&gt;" style="text;html=1;align=left;verticalAlign=middle;resizable=0;points=[];autosize=1;strokeColor=none;fillColor=none;" vertex="1" parent="84">
                    <mxGeometry x="-9.39393051678454" width="160" height="40" as="geometry"/>
                </mxCell>
                <mxCell id="115" value="" style="shape=table;startSize=0;container=1;collapsible=0;childLayout=tableLayout;fontSize=16;" vertex="1" parent="84">
                    <mxGeometry x="5" y="201.1199999999999" width="740" height="59.99999999999909" as="geometry"/>
                </mxCell>
                <mxCell id="116" value="" style="shape=tableRow;horizontal=0;startSize=0;swimlaneHead=0;swimlaneBody=0;strokeColor=inherit;top=0;left=0;bottom=0;right=0;collapsible=0;dropTarget=0;fillColor=none;points=[[0,0.5],[1,0.5]];portConstraint=eastwest;fontSize=16;fontColor=#FFFFFF;" vertex="1" parent="115">
                    <mxGeometry width="740" height="60" as="geometry"/>
                </mxCell>
                <mxCell id="117" value="&lt;font style=&quot;font-size: 32px; color: rgb(255, 255, 255);&quot;&gt;週&lt;/font&gt;" style="shape=partialRectangle;html=1;whiteSpace=wrap;connectable=0;strokeColor=#001DBC;overflow=hidden;fillColor=#0050ef;top=0;left=0;bottom=0;right=0;pointerEvents=1;fontSize=16;fontColor=#FFFFFF;" vertex="1" parent="116">
                    <mxGeometry width="247" height="60" as="geometry">
                        <mxRectangle width="247" height="60" as="alternateBounds"/>
                    </mxGeometry>
                </mxCell>
                <mxCell id="118" value="&lt;font style=&quot;font-size: 32px;&quot;&gt;月&lt;/font&gt;" style="shape=partialRectangle;html=1;whiteSpace=wrap;connectable=0;strokeColor=inherit;overflow=hidden;fillColor=none;top=0;left=0;bottom=0;right=0;pointerEvents=1;fontSize=16;" vertex="1" parent="116">
                    <mxGeometry x="247" width="246" height="60" as="geometry">
                        <mxRectangle width="246" height="60" as="alternateBounds"/>
                    </mxGeometry>
                </mxCell>
                <mxCell id="119" value="&lt;font style=&quot;font-size: 32px;&quot;&gt;年&lt;/font&gt;" style="shape=partialRectangle;html=1;whiteSpace=wrap;connectable=0;strokeColor=inherit;overflow=hidden;fillColor=none;top=0;left=0;bottom=0;right=0;pointerEvents=1;fontSize=16;" vertex="1" parent="116">
                    <mxGeometry x="493" width="247" height="60" as="geometry">
                        <mxRectangle width="247" height="60" as="alternateBounds"/>
                    </mxGeometry>
                </mxCell>
                <mxCell id="166" value="&lt;font style=&quot;font-size: 37px;&quot;&gt;9月1日~9月7日&lt;/font&gt;" style="rounded=0;whiteSpace=wrap;html=1;align=center;strokeColor=none;fontColor=default;fillColor=none;" vertex="1" parent="84">
                    <mxGeometry x="-1.25" y="261.12" width="311.25" height="144.89" as="geometry"/>
                </mxCell>
                <mxCell id="174" value="&lt;div&gt;&lt;font style=&quot;font-size: 30px;&quot;&gt;月&lt;/font&gt;&lt;/div&gt;&lt;font style=&quot;font-size: 30px;&quot;&gt;1日&lt;/font&gt;" style="rounded=0;whiteSpace=wrap;html=1;align=center;strokeColor=none;fontColor=default;fillColor=none;" vertex="1" parent="84">
                    <mxGeometry x="84.87" y="1111.12" width="81.25" height="68.88" as="geometry"/>
                </mxCell>
                <mxCell id="175" value="&lt;div&gt;&lt;span style=&quot;font-size: 30px;&quot;&gt;火&lt;/span&gt;&lt;/div&gt;&lt;font style=&quot;font-size: 30px;&quot;&gt;2日&lt;/font&gt;" style="rounded=0;whiteSpace=wrap;html=1;align=center;strokeColor=none;fontColor=default;fillColor=none;" vertex="1" parent="84">
                    <mxGeometry x="166.1199999999999" y="1111.12" width="81.25" height="68.88" as="geometry"/>
                </mxCell>
                <mxCell id="176" value="&lt;div&gt;&lt;span style=&quot;color: rgb(63, 63, 63); font-size: 30px; background-color: transparent;&quot;&gt;水&lt;/span&gt;&lt;/div&gt;&lt;div&gt;&lt;span style=&quot;color: rgb(63, 63, 63); font-size: 30px; background-color: transparent;&quot;&gt;3日&lt;/span&gt;&lt;/div&gt;" style="rounded=0;whiteSpace=wrap;html=1;align=center;strokeColor=none;fontColor=default;fillColor=none;" vertex="1" parent="84">
                    <mxGeometry x="247.3699999999999" y="1111.12" width="81.25" height="68.88" as="geometry"/>
                </mxCell>
                <mxCell id="177" value="&lt;div&gt;&lt;span style=&quot;font-size: 30px;&quot;&gt;木&lt;/span&gt;&lt;/div&gt;&lt;font style=&quot;font-size: 30px;&quot;&gt;4日&lt;/font&gt;" style="rounded=0;whiteSpace=wrap;html=1;align=center;strokeColor=none;fontColor=default;fillColor=none;" vertex="1" parent="84">
                    <mxGeometry x="334.3799999999999" y="1111.12" width="81.25" height="68.88" as="geometry"/>
                </mxCell>
                <mxCell id="178" value="&lt;div&gt;&lt;span style=&quot;font-size: 30px;&quot;&gt;金&lt;/span&gt;&lt;/div&gt;&lt;font style=&quot;font-size: 30px;&quot;&gt;5日&lt;/font&gt;" style="rounded=0;whiteSpace=wrap;html=1;align=center;strokeColor=none;fontColor=default;fillColor=none;" vertex="1" parent="84">
                    <mxGeometry x="424.8699999999999" y="1111.12" width="81.25" height="68.88" as="geometry"/>
                </mxCell>
                <mxCell id="179" value="&lt;div&gt;&lt;span style=&quot;font-size: 30px;&quot;&gt;土&lt;/span&gt;&lt;/div&gt;&lt;font style=&quot;font-size: 30px;&quot;&gt;6日&lt;/font&gt;" style="rounded=0;whiteSpace=wrap;html=1;align=center;strokeColor=none;fontColor=default;fillColor=none;" vertex="1" parent="84">
                    <mxGeometry x="506.1199999999999" y="1111.12" width="81.25" height="68.88" as="geometry"/>
                </mxCell>
                <mxCell id="180" value="&lt;div&gt;&lt;span style=&quot;font-size: 30px;&quot;&gt;日&lt;/span&gt;&lt;/div&gt;&lt;font style=&quot;font-size: 30px;&quot;&gt;7日&lt;/font&gt;" style="rounded=0;whiteSpace=wrap;html=1;align=center;strokeColor=none;fontColor=default;fillColor=none;" vertex="1" parent="84">
                    <mxGeometry x="602.8699999999999" y="1111.12" width="81.25" height="68.88" as="geometry"/>
                </mxCell>
                <mxCell id="181" value="&lt;div&gt;&lt;span style=&quot;font-size: 30px;&quot;&gt;kg&lt;/span&gt;&lt;/div&gt;" style="rounded=0;whiteSpace=wrap;html=1;align=center;strokeColor=none;fontColor=default;fillColor=none;" vertex="1" parent="84">
                    <mxGeometry x="44.86999999999989" y="370.1199999999999" width="81.25" height="68.88" as="geometry"/>
                </mxCell>
                <mxCell id="182" value="&lt;span style=&quot;color: rgb(63, 63, 63); font-size: 37px;&quot;&gt;9月1日~9月7日の平均体重&lt;/span&gt;" style="rounded=0;whiteSpace=wrap;html=1;align=left;strokeColor=none;fontColor=default;fillColor=none;" vertex="1" parent="84">
                    <mxGeometry y="1223.99" width="680" height="66.01" as="geometry"/>
                </mxCell>
                <mxCell id="183" value="&lt;span style=&quot;color: rgb(63, 63, 63);&quot;&gt;&lt;font style=&quot;font-size: 60px;&quot;&gt;60.0 &lt;/font&gt;&lt;font style=&quot;font-size: 32px;&quot;&gt;kg&lt;/font&gt;&lt;/span&gt;" style="rounded=0;whiteSpace=wrap;html=1;align=right;strokeColor=none;fontColor=default;fillColor=none;" vertex="1" parent="84">
                    <mxGeometry x="444.87" y="1290" width="305.13" height="80" as="geometry"/>
                </mxCell>
                <mxCell id="184" value="" style="group;strokeColor=none;" vertex="1" connectable="0" parent="1">
                    <mxGeometry x="2280" y="1347.7600000000002" width="763" height="1370" as="geometry"/>
                </mxCell>
                <mxCell id="185" value="" style="group" vertex="1" connectable="0" parent="184">
                    <mxGeometry x="12.5" width="750" height="1370" as="geometry"/>
                </mxCell>
                <mxCell id="186" value="" style="rounded=0;whiteSpace=wrap;html=1;" vertex="1" parent="185">
                    <mxGeometry y="67.0691906005222" width="747.4906233597574" height="1301.8129895561358" as="geometry"/>
                </mxCell>
                <mxCell id="187" value="&lt;font style=&quot;font-size: 37px;&quot;&gt;　←　　　　　　　体重&lt;/font&gt;" style="rounded=0;whiteSpace=wrap;html=1;align=left;strokeColor=none;fontColor=default;fillColor=none;" vertex="1" parent="185">
                    <mxGeometry y="71.12" width="750" height="144.89" as="geometry"/>
                </mxCell>
                <mxCell id="188" value="&lt;font style=&quot;font-size: 24px;&quot;&gt;グラフ(詳細)&lt;/font&gt;" style="text;html=1;align=left;verticalAlign=middle;resizable=0;points=[];autosize=1;strokeColor=none;fillColor=none;" vertex="1" parent="185">
                    <mxGeometry x="-9.39393051678454" width="160" height="40" as="geometry"/>
                </mxCell>
                <mxCell id="189" value="" style="shape=table;startSize=0;container=1;collapsible=0;childLayout=tableLayout;fontSize=16;" vertex="1" parent="185">
                    <mxGeometry x="5" y="201.1199999999999" width="740" height="59.99999999999909" as="geometry"/>
                </mxCell>
                <mxCell id="190" value="" style="shape=tableRow;horizontal=0;startSize=0;swimlaneHead=0;swimlaneBody=0;strokeColor=inherit;top=0;left=0;bottom=0;right=0;collapsible=0;dropTarget=0;fillColor=none;points=[[0,0.5],[1,0.5]];portConstraint=eastwest;fontSize=16;fontColor=#FFFFFF;" vertex="1" parent="189">
                    <mxGeometry width="740" height="60" as="geometry"/>
                </mxCell>
                <mxCell id="191" value="&lt;font style=&quot;font-size: 32px;&quot;&gt;週&lt;/font&gt;" style="shape=partialRectangle;html=1;whiteSpace=wrap;connectable=0;strokeColor=#001DBC;overflow=hidden;fillColor=#FFFFFF;top=0;left=0;bottom=0;right=0;pointerEvents=1;fontSize=16;fontColor=#1A1A1A;" vertex="1" parent="190">
                    <mxGeometry width="247" height="60" as="geometry">
                        <mxRectangle width="247" height="60" as="alternateBounds"/>
                    </mxGeometry>
                </mxCell>
                <mxCell id="192" value="&lt;font style=&quot;font-size: 32px; color: rgb(255, 255, 255);&quot;&gt;月&lt;/font&gt;" style="shape=partialRectangle;html=1;whiteSpace=wrap;connectable=0;strokeColor=#001DBC;overflow=hidden;fillColor=#0050ef;top=0;left=0;bottom=0;right=0;pointerEvents=1;fontSize=16;fontColor=#ffffff;" vertex="1" parent="190">
                    <mxGeometry x="247" width="246" height="60" as="geometry">
                        <mxRectangle width="246" height="60" as="alternateBounds"/>
                    </mxGeometry>
                </mxCell>
                <mxCell id="193" value="&lt;font style=&quot;font-size: 32px;&quot;&gt;年&lt;/font&gt;" style="shape=partialRectangle;html=1;whiteSpace=wrap;connectable=0;strokeColor=inherit;overflow=hidden;fillColor=none;top=0;left=0;bottom=0;right=0;pointerEvents=1;fontSize=16;" vertex="1" parent="190">
                    <mxGeometry x="493" width="247" height="60" as="geometry">
                        <mxRectangle width="247" height="60" as="alternateBounds"/>
                    </mxGeometry>
                </mxCell>
                <mxCell id="194" value="&lt;font style=&quot;font-size: 37px;&quot;&gt;9月1日~9月30日&lt;/font&gt;" style="rounded=0;whiteSpace=wrap;html=1;align=center;strokeColor=none;fontColor=default;fillColor=none;" vertex="1" parent="185">
                    <mxGeometry x="-1.25" y="261.12" width="311.25" height="144.89" as="geometry"/>
                </mxCell>
                <mxCell id="195" value="&lt;div&gt;&lt;br&gt;&lt;/div&gt;&lt;font style=&quot;font-size: 30px;&quot;&gt;1~5&lt;/font&gt;" style="rounded=0;whiteSpace=wrap;html=1;align=center;strokeColor=none;fontColor=default;fillColor=none;" vertex="1" parent="185">
                    <mxGeometry x="44.870000000000005" y="1102.2399999999998" width="135.13" height="68.88" as="geometry"/>
                </mxCell>
                <mxCell id="197" value="&lt;div&gt;&lt;span style=&quot;font-size: 30px;&quot;&gt;6~10&lt;/span&gt;&lt;/div&gt;" style="rounded=0;whiteSpace=wrap;html=1;align=center;strokeColor=none;fontColor=default;fillColor=none;" vertex="1" parent="185">
                    <mxGeometry x="167.4999999999999" y="1111.12" width="81.25" height="68.88" as="geometry"/>
                </mxCell>
                <mxCell id="198" value="&lt;div&gt;&lt;span style=&quot;font-size: 30px;&quot;&gt;11~15&lt;/span&gt;&lt;/div&gt;" style="rounded=0;whiteSpace=wrap;html=1;align=center;strokeColor=none;fontColor=default;fillColor=none;" vertex="1" parent="185">
                    <mxGeometry x="277.4999999999999" y="1111.12" width="81.25" height="68.88" as="geometry"/>
                </mxCell>
                <mxCell id="199" value="&lt;div&gt;&lt;span style=&quot;font-size: 30px;&quot;&gt;16~20&lt;/span&gt;&lt;/div&gt;" style="rounded=0;whiteSpace=wrap;html=1;align=center;strokeColor=none;fontColor=default;fillColor=none;" vertex="1" parent="185">
                    <mxGeometry x="377.4999999999999" y="1111.12" width="81.25" height="68.88" as="geometry"/>
                </mxCell>
                <mxCell id="200" value="&lt;div&gt;&lt;span style=&quot;font-size: 30px;&quot;&gt;21~25&lt;/span&gt;&lt;/div&gt;" style="rounded=0;whiteSpace=wrap;html=1;align=center;strokeColor=none;fontColor=default;fillColor=none;" vertex="1" parent="185">
                    <mxGeometry x="477.4999999999999" y="1111.12" width="81.25" height="68.88" as="geometry"/>
                </mxCell>
                <mxCell id="201" value="&lt;div&gt;&lt;span style=&quot;font-size: 30px;&quot;&gt;26~30or31&lt;/span&gt;&lt;/div&gt;" style="rounded=0;whiteSpace=wrap;html=1;align=center;strokeColor=none;fontColor=default;fillColor=none;" vertex="1" parent="185">
                    <mxGeometry x="570" y="1111.12" width="170" height="68.88" as="geometry"/>
                </mxCell>
                <mxCell id="202" value="&lt;div&gt;&lt;span style=&quot;font-size: 30px;&quot;&gt;kg&lt;/span&gt;&lt;/div&gt;" style="rounded=0;whiteSpace=wrap;html=1;align=center;strokeColor=none;fontColor=default;fillColor=none;" vertex="1" parent="185">
                    <mxGeometry x="44.86999999999989" y="370.1199999999999" width="81.25" height="68.88" as="geometry"/>
                </mxCell>
                <mxCell id="203" value="&lt;span style=&quot;color: rgb(63, 63, 63); font-size: 37px;&quot;&gt;9月1日~9月30日の平均体重&lt;/span&gt;" style="rounded=0;whiteSpace=wrap;html=1;align=left;strokeColor=none;fontColor=default;fillColor=none;" vertex="1" parent="185">
                    <mxGeometry y="1223.99" width="680" height="66.01" as="geometry"/>
                </mxCell>
                <mxCell id="204" value="&lt;span style=&quot;color: rgb(63, 63, 63);&quot;&gt;&lt;font style=&quot;font-size: 60px;&quot;&gt;60.0 &lt;/font&gt;&lt;font style=&quot;font-size: 32px;&quot;&gt;kg&lt;/font&gt;&lt;/span&gt;" style="rounded=0;whiteSpace=wrap;html=1;align=right;strokeColor=none;fontColor=default;fillColor=none;" vertex="1" parent="185">
                    <mxGeometry x="444.87" y="1290" width="305.13" height="80" as="geometry"/>
                </mxCell>
                <mxCell id="207" value="" style="group;strokeColor=none;" vertex="1" connectable="0" parent="1">
                    <mxGeometry x="3100" y="1347.7600000000002" width="763" height="1370" as="geometry"/>
                </mxCell>
                <mxCell id="208" value="" style="group" vertex="1" connectable="0" parent="207">
                    <mxGeometry x="12.5" width="750" height="1370" as="geometry"/>
                </mxCell>
                <mxCell id="209" value="" style="rounded=0;whiteSpace=wrap;html=1;" vertex="1" parent="208">
                    <mxGeometry x="2.51" y="82.2391906005222" width="747.4906233597574" height="1301.8129895561358" as="geometry"/>
                </mxCell>
                <mxCell id="210" value="&lt;font style=&quot;font-size: 37px;&quot;&gt;　←　　　　　　　体重&lt;/font&gt;" style="rounded=0;whiteSpace=wrap;html=1;align=left;strokeColor=none;fontColor=default;fillColor=none;" vertex="1" parent="208">
                    <mxGeometry y="71.12" width="750" height="144.89" as="geometry"/>
                </mxCell>
                <mxCell id="211" value="&lt;font style=&quot;font-size: 24px;&quot;&gt;グラフ(詳細)&lt;/font&gt;" style="text;html=1;align=left;verticalAlign=middle;resizable=0;points=[];autosize=1;strokeColor=none;fillColor=none;" vertex="1" parent="208">
                    <mxGeometry x="-9.39393051678454" width="160" height="40" as="geometry"/>
                </mxCell>
                <mxCell id="212" value="" style="shape=table;startSize=0;container=1;collapsible=0;childLayout=tableLayout;fontSize=16;" vertex="1" parent="208">
                    <mxGeometry x="5" y="201.1199999999999" width="740" height="59.99999999999909" as="geometry"/>
                </mxCell>
                <mxCell id="213" value="" style="shape=tableRow;horizontal=0;startSize=0;swimlaneHead=0;swimlaneBody=0;strokeColor=inherit;top=0;left=0;bottom=0;right=0;collapsible=0;dropTarget=0;fillColor=none;points=[[0,0.5],[1,0.5]];portConstraint=eastwest;fontSize=16;fontColor=#FFFFFF;" vertex="1" parent="212">
                    <mxGeometry width="740" height="60" as="geometry"/>
                </mxCell>
                <mxCell id="214" value="&lt;font style=&quot;font-size: 32px;&quot;&gt;週&lt;/font&gt;" style="shape=partialRectangle;html=1;whiteSpace=wrap;connectable=0;strokeColor=#001DBC;overflow=hidden;fillColor=#FFFFFF;top=0;left=0;bottom=0;right=0;pointerEvents=1;fontSize=16;fontColor=#1A1A1A;" vertex="1" parent="213">
                    <mxGeometry width="247" height="60" as="geometry">
                        <mxRectangle width="247" height="60" as="alternateBounds"/>
                    </mxGeometry>
                </mxCell>
                <mxCell id="215" value="&lt;font style=&quot;font-size: 32px; color: rgb(26, 26, 26);&quot;&gt;月&lt;/font&gt;" style="shape=partialRectangle;html=1;whiteSpace=wrap;connectable=0;overflow=hidden;top=0;left=0;bottom=0;right=0;pointerEvents=1;fontSize=16;" vertex="1" parent="213">
                    <mxGeometry x="247" width="246" height="60" as="geometry">
                        <mxRectangle width="246" height="60" as="alternateBounds"/>
                    </mxGeometry>
                </mxCell>
                <mxCell id="216" value="&lt;font style=&quot;font-size: 32px; color: rgb(255, 255, 255);&quot;&gt;年&lt;/font&gt;" style="shape=partialRectangle;html=1;whiteSpace=wrap;connectable=0;strokeColor=#001DBC;overflow=hidden;fillColor=#0050ef;top=0;left=0;bottom=0;right=0;pointerEvents=1;fontSize=16;fontColor=#FFFFFF;" vertex="1" parent="213">
                    <mxGeometry x="493" width="247" height="60" as="geometry">
                        <mxRectangle width="247" height="60" as="alternateBounds"/>
                    </mxGeometry>
                </mxCell>
                <mxCell id="217" value="&lt;font style=&quot;font-size: 37px;&quot;&gt;2025年1月～12月&lt;/font&gt;" style="rounded=0;whiteSpace=wrap;html=1;align=center;strokeColor=none;fontColor=default;fillColor=none;" vertex="1" parent="208">
                    <mxGeometry x="-1.25" y="261.12" width="331.25" height="144.89" as="geometry"/>
                </mxCell>
                <mxCell id="218" value="&lt;div&gt;&lt;font style=&quot;font-size: 31px;&quot;&gt;1&lt;/font&gt;&lt;/div&gt;&lt;div&gt;&lt;font style=&quot;font-size: 31px;&quot;&gt;月&lt;/font&gt;&lt;/div&gt;" style="rounded=0;whiteSpace=wrap;html=1;align=center;strokeColor=none;fontColor=default;fillColor=none;" vertex="1" parent="208">
                    <mxGeometry x="44.87" y="1102.24" width="65.13" height="68.88" as="geometry"/>
                </mxCell>
                <mxCell id="224" value="&lt;div&gt;&lt;span style=&quot;font-size: 30px;&quot;&gt;kg&lt;/span&gt;&lt;/div&gt;" style="rounded=0;whiteSpace=wrap;html=1;align=center;strokeColor=none;fontColor=default;fillColor=none;" vertex="1" parent="208">
                    <mxGeometry x="44.86999999999989" y="370.1199999999999" width="81.25" height="68.88" as="geometry"/>
                </mxCell>
                <mxCell id="225" value="&lt;span style=&quot;color: rgb(63, 63, 63); font-size: 37px;&quot;&gt;&lt;span style=&quot;color: rgb(63, 63, 63); text-align: center;&quot;&gt;2025年1月～12月&lt;/span&gt;の平均体重&lt;/span&gt;" style="rounded=0;whiteSpace=wrap;html=1;align=left;strokeColor=none;fontColor=default;fillColor=none;" vertex="1" parent="208">
                    <mxGeometry y="1223.99" width="680" height="66.01" as="geometry"/>
                </mxCell>
                <mxCell id="226" value="&lt;span style=&quot;color: rgb(63, 63, 63);&quot;&gt;&lt;font style=&quot;font-size: 60px;&quot;&gt;60.0 &lt;/font&gt;&lt;font style=&quot;font-size: 32px;&quot;&gt;kg&lt;/font&gt;&lt;/span&gt;" style="rounded=0;whiteSpace=wrap;html=1;align=right;strokeColor=none;fontColor=default;fillColor=none;" vertex="1" parent="208">
                    <mxGeometry x="444.87" y="1290" width="305.13" height="80" as="geometry"/>
                </mxCell>
                <mxCell id="238" value="&lt;div&gt;&lt;font style=&quot;font-size: 31px;&quot;&gt;2&lt;/font&gt;&lt;/div&gt;&lt;div&gt;&lt;font style=&quot;font-size: 31px;&quot;&gt;月&lt;/font&gt;&lt;/div&gt;" style="rounded=0;whiteSpace=wrap;html=1;align=center;strokeColor=none;fontColor=default;fillColor=none;" vertex="1" parent="208">
                    <mxGeometry x="97.5" y="1102.24" width="62.5" height="68.88" as="geometry"/>
                </mxCell>
                <mxCell id="239" value="&lt;div&gt;&lt;font style=&quot;font-size: 31px;&quot;&gt;3&lt;/font&gt;&lt;/div&gt;&lt;div&gt;&lt;font style=&quot;font-size: 31px;&quot;&gt;月&lt;/font&gt;&lt;/div&gt;" style="rounded=0;whiteSpace=wrap;html=1;align=center;strokeColor=none;fontColor=default;fillColor=none;" vertex="1" parent="208">
                    <mxGeometry x="150.61" y="1102.2399999999998" width="62.5" height="68.88" as="geometry"/>
                </mxCell>
                <mxCell id="240" value="&lt;div&gt;&lt;font style=&quot;font-size: 31px;&quot;&gt;4&lt;/font&gt;&lt;/div&gt;&lt;div&gt;&lt;font style=&quot;font-size: 31px;&quot;&gt;月&lt;/font&gt;&lt;/div&gt;" style="rounded=0;whiteSpace=wrap;html=1;align=center;strokeColor=none;fontColor=default;fillColor=none;" vertex="1" parent="208">
                    <mxGeometry x="204.5" y="1102.2399999999998" width="62.5" height="68.88" as="geometry"/>
                </mxCell>
                <mxCell id="241" value="&lt;div&gt;&lt;font style=&quot;font-size: 31px;&quot;&gt;5&lt;/font&gt;&lt;/div&gt;&lt;div&gt;&lt;font style=&quot;font-size: 31px;&quot;&gt;月&lt;/font&gt;&lt;/div&gt;" style="rounded=0;whiteSpace=wrap;html=1;align=center;strokeColor=none;fontColor=default;fillColor=none;" vertex="1" parent="208">
                    <mxGeometry x="257.5" y="1102.2399999999998" width="62.5" height="68.88" as="geometry"/>
                </mxCell>
                <mxCell id="242" value="&lt;div&gt;&lt;font style=&quot;font-size: 31px;&quot;&gt;6&lt;/font&gt;&lt;/div&gt;&lt;div&gt;&lt;font style=&quot;font-size: 31px;&quot;&gt;月&lt;/font&gt;&lt;/div&gt;" style="rounded=0;whiteSpace=wrap;html=1;align=center;strokeColor=none;fontColor=default;fillColor=none;" vertex="1" parent="208">
                    <mxGeometry x="308.75" y="1102.2399999999998" width="62.5" height="68.88" as="geometry"/>
                </mxCell>
                <mxCell id="243" value="&lt;div&gt;&lt;font style=&quot;font-size: 31px;&quot;&gt;7&lt;/font&gt;&lt;/div&gt;&lt;div&gt;&lt;font style=&quot;font-size: 31px;&quot;&gt;月&lt;/font&gt;&lt;/div&gt;" style="rounded=0;whiteSpace=wrap;html=1;align=center;strokeColor=none;fontColor=default;fillColor=none;" vertex="1" parent="208">
                    <mxGeometry x="365.5" y="1104.2399999999998" width="62.5" height="68.88" as="geometry"/>
                </mxCell>
                <mxCell id="245" value="&lt;div&gt;&lt;font style=&quot;font-size: 31px;&quot;&gt;8&lt;/font&gt;&lt;/div&gt;&lt;div&gt;&lt;font style=&quot;font-size: 31px;&quot;&gt;月&lt;/font&gt;&lt;/div&gt;" style="rounded=0;whiteSpace=wrap;html=1;align=center;strokeColor=none;fontColor=default;fillColor=none;" vertex="1" parent="208">
                    <mxGeometry x="417.5" y="1104.2399999999998" width="62.5" height="68.88" as="geometry"/>
                </mxCell>
                <mxCell id="246" value="&lt;div&gt;&lt;font style=&quot;font-size: 31px;&quot;&gt;9&lt;/font&gt;&lt;/div&gt;&lt;div&gt;&lt;font style=&quot;font-size: 31px;&quot;&gt;月&lt;/font&gt;&lt;/div&gt;" style="rounded=0;whiteSpace=wrap;html=1;align=center;strokeColor=none;fontColor=default;fillColor=none;" vertex="1" parent="208">
                    <mxGeometry x="467.5" y="1104.2399999999998" width="62.5" height="68.88" as="geometry"/>
                </mxCell>
                <mxCell id="248" value="&lt;div&gt;&lt;font style=&quot;font-size: 31px;&quot;&gt;10&lt;/font&gt;&lt;/div&gt;&lt;div&gt;&lt;font style=&quot;font-size: 31px;&quot;&gt;月&lt;/font&gt;&lt;/div&gt;" style="rounded=0;whiteSpace=wrap;html=1;align=center;strokeColor=none;fontColor=default;fillColor=none;" vertex="1" parent="208">
                    <mxGeometry x="517.5" y="1104.24" width="72.5" height="68.88" as="geometry"/>
                </mxCell>
                <mxCell id="249" value="&lt;div&gt;&lt;font style=&quot;font-size: 31px;&quot;&gt;11&lt;/font&gt;&lt;/div&gt;&lt;div&gt;&lt;font style=&quot;font-size: 31px;&quot;&gt;月&lt;/font&gt;&lt;/div&gt;" style="rounded=0;whiteSpace=wrap;html=1;align=center;strokeColor=none;fontColor=default;fillColor=none;" vertex="1" parent="208">
                    <mxGeometry x="577.5" y="1104.2399999999998" width="72.5" height="68.88" as="geometry"/>
                </mxCell>
                <mxCell id="250" value="&lt;div&gt;&lt;font style=&quot;font-size: 31px;&quot;&gt;12&lt;/font&gt;&lt;/div&gt;&lt;div&gt;&lt;font style=&quot;font-size: 31px;&quot;&gt;月&lt;/font&gt;&lt;/div&gt;" style="rounded=0;whiteSpace=wrap;html=1;align=center;strokeColor=none;fontColor=default;fillColor=none;" vertex="1" parent="208">
                    <mxGeometry x="637.5" y="1104.2399999999998" width="72.5" height="68.88" as="geometry"/>
                </mxCell>
                <mxCell id="414" value="" style="group" vertex="1" connectable="0" parent="1">
                    <mxGeometry x="2287.99" y="4380" width="807.9900000000001" height="3199.999999999999" as="geometry"/>
                </mxCell>
                <mxCell id="415" value="" style="rounded=0;whiteSpace=wrap;html=1;" vertex="1" parent="414">
                    <mxGeometry y="150" width="747.49" height="1632.93" as="geometry"/>
                </mxCell>
                <mxCell id="416" value="&lt;font style=&quot;font-size: 18px;&quot;&gt;&amp;nbsp; &amp;nbsp; &amp;nbsp; 体重管理アプリ&lt;/font&gt;" style="rounded=0;whiteSpace=wrap;html=1;align=left;" vertex="1" parent="414">
                    <mxGeometry x="0.006904198469532812" y="63.05054505131229" width="747.4930958015303" height="144.88714819985879" as="geometry"/>
                </mxCell>
                <mxCell id="417" value="&lt;font style=&quot;font-size: 18px;&quot;&gt;　　 ログアウト&amp;nbsp; &amp;nbsp; &amp;nbsp; &amp;nbsp;　　　&lt;/font&gt;" style="rounded=0;whiteSpace=wrap;html=1;align=right;strokeColor=none;fontColor=default;fillColor=none;" vertex="1" parent="414">
                    <mxGeometry x="385.59720206558023" y="62.72966418635689" width="361.90279793441965" height="144.88714819985879" as="geometry"/>
                </mxCell>
                <mxCell id="418" value="&lt;span style=&quot;font-size: 18px;&quot;&gt;&lt;font style=&quot;color: rgb(26, 26, 26);&quot;&gt;ホーム&lt;/font&gt;&lt;/span&gt;" style="rounded=0;whiteSpace=wrap;html=1;align=center;" vertex="1" parent="414">
                    <mxGeometry x="0.5994530070359328" y="1640.0028518001413" width="168.80414839159866" height="144.88714819985879" as="geometry"/>
                </mxCell>
                <mxCell id="419" value="&lt;font style=&quot;font-size: 18px; color: rgb(26, 26, 26);&quot;&gt;Ai分析&lt;/font&gt;" style="rounded=0;whiteSpace=wrap;html=1;align=center;" vertex="1" parent="414">
                    <mxGeometry x="169.4036013986346" y="1640.0028518001413" width="202.3337395104778" height="144.88714819985879" as="geometry"/>
                </mxCell>
                <mxCell id="420" value="&lt;span style=&quot;font-size: 18px;&quot;&gt;&lt;font style=&quot;color: rgb(0, 0, 255);&quot;&gt;記録&lt;/font&gt;&lt;/span&gt;" style="rounded=0;whiteSpace=wrap;html=1;align=center;" vertex="1" parent="414">
                    <mxGeometry x="371.7373409091124" y="1640.0028518001413" width="187.88132954544372" height="144.88714819985879" as="geometry"/>
                </mxCell>
                <mxCell id="421" value="&lt;span style=&quot;font-size: 18px;&quot;&gt;マイページ&lt;/span&gt;" style="rounded=0;whiteSpace=wrap;html=1;align=center;" vertex="1" parent="414">
                    <mxGeometry x="559.6186704545562" y="1640.0028518001413" width="187.88132954544372" height="144.88714819985879" as="geometry"/>
                </mxCell>
                <mxCell id="422" value="&lt;span style=&quot;font-size: 30px;&quot;&gt;データを登録(編集)する&lt;/span&gt;" style="rounded=0;whiteSpace=wrap;html=1;align=left;fillColor=none;strokeColor=none;" vertex="1" parent="414">
                    <mxGeometry x="24.881438674800346" y="232.6071312010444" width="547.605951358835" height="92.4884138381201" as="geometry"/>
                </mxCell>
                <mxCell id="423" value="&lt;font style=&quot;font-size: 24px;&quot;&gt;記録&lt;/font&gt;" style="text;html=1;align=center;verticalAlign=middle;resizable=0;points=[];autosize=1;strokeColor=none;fillColor=none;" vertex="1" parent="414">
                    <mxGeometry x="-0.003930516784535598" width="70" height="40" as="geometry"/>
                </mxCell>
                <mxCell id="424" value="&lt;font style=&quot;font-size: 40px;&quot;&gt;デフォルトで今日を選択&lt;/font&gt;" style="rounded=0;whiteSpace=wrap;html=1;align=left;strokeColor=default;fontColor=default;fillColor=none;verticalAlign=top;" vertex="1" parent="414">
                    <mxGeometry x="227.52" y="375" width="476.31" height="60" as="geometry"/>
                </mxCell>
                <mxCell id="432" value="&lt;font style=&quot;font-size: 40px;&quot;&gt;日付&lt;/font&gt;" style="text;html=1;align=center;verticalAlign=middle;resizable=0;points=[];autosize=1;strokeColor=none;fillColor=none;" vertex="1" parent="414">
                    <mxGeometry x="17.01000000000022" y="375" width="100" height="60" as="geometry"/>
                </mxCell>
                <mxCell id="433" value="&lt;font style=&quot;font-size: 40px;&quot;&gt;体重&lt;/font&gt;" style="text;html=1;align=center;verticalAlign=middle;resizable=0;points=[];autosize=1;strokeColor=none;fillColor=none;" vertex="1" parent="414">
                    <mxGeometry x="17.01000000000022" y="470" width="100" height="60" as="geometry"/>
                </mxCell>
                <mxCell id="434" value="" style="rounded=0;whiteSpace=wrap;html=1;align=left;strokeColor=default;fontColor=default;fillColor=none;verticalAlign=top;" vertex="1" parent="414">
                    <mxGeometry x="467.01" y="470" width="140" height="60" as="geometry"/>
                </mxCell>
                <mxCell id="435" value="&lt;font style=&quot;font-size: 40px;&quot;&gt;kg&lt;/font&gt;" style="text;html=1;align=center;verticalAlign=middle;resizable=0;points=[];autosize=1;strokeColor=none;fillColor=none;" vertex="1" parent="414">
                    <mxGeometry x="617.0100000000002" y="470" width="70" height="60" as="geometry"/>
                </mxCell>
                <mxCell id="436" value="&lt;span style=&quot;font-size: 40px;&quot;&gt;食事&lt;/span&gt;" style="text;html=1;align=center;verticalAlign=middle;resizable=0;points=[];autosize=1;strokeColor=none;fillColor=none;" vertex="1" parent="414">
                    <mxGeometry x="17.01000000000022" y="710" width="100" height="60" as="geometry"/>
                </mxCell>
                <mxCell id="437" value="&lt;span style=&quot;font-size: 32px;&quot;&gt;チェックボックスで複数選択可&lt;br&gt;その他詳細も登録可能にする&lt;/span&gt;" style="rounded=0;whiteSpace=wrap;html=1;align=left;strokeColor=default;fontColor=default;fillColor=none;verticalAlign=top;" vertex="1" parent="414">
                    <mxGeometry x="24.88" y="780" width="665.12" height="100" as="geometry"/>
                </mxCell>
                <mxCell id="438" value="&lt;span style=&quot;font-size: 32px;&quot;&gt;チェックボックスで複数選択可&lt;br&gt;その他詳細も登録可能にする&lt;/span&gt;" style="rounded=0;whiteSpace=wrap;html=1;align=left;strokeColor=default;fontColor=default;fillColor=none;verticalAlign=top;" vertex="1" parent="414">
                    <mxGeometry x="24.88000000000011" y="1330" width="665.12" height="100" as="geometry"/>
                </mxCell>
                <mxCell id="439" value="&lt;span style=&quot;font-size: 40px;&quot;&gt;運動&lt;/span&gt;" style="text;html=1;align=center;verticalAlign=middle;resizable=0;points=[];autosize=1;strokeColor=none;fillColor=none;" vertex="1" parent="414">
                    <mxGeometry x="17.01000000000022" y="1260" width="100" height="60" as="geometry"/>
                </mxCell>
                <mxCell id="440" value="&lt;font style=&quot;font-size: 40px;&quot;&gt;睡眠時間&lt;/font&gt;" style="text;html=1;align=center;verticalAlign=middle;resizable=0;points=[];autosize=1;strokeColor=none;fillColor=none;" vertex="1" parent="414">
                    <mxGeometry x="13.010000000000218" y="590" width="180" height="60" as="geometry"/>
                </mxCell>
                <mxCell id="441" value="" style="rounded=0;whiteSpace=wrap;html=1;align=left;strokeColor=default;fontColor=default;fillColor=none;verticalAlign=top;" vertex="1" parent="414">
                    <mxGeometry x="333.99" y="590" width="76.01" height="60" as="geometry"/>
                </mxCell>
                <mxCell id="442" value="&lt;span style=&quot;font-size: 40px;&quot;&gt;時間&lt;/span&gt;" style="text;html=1;align=center;verticalAlign=middle;resizable=0;points=[];autosize=1;strokeColor=none;fillColor=none;" vertex="1" parent="414">
                    <mxGeometry x="430.0000000000002" y="590" width="100" height="60" as="geometry"/>
                </mxCell>
                <mxCell id="443" value="&lt;font style=&quot;font-size: 40px;&quot;&gt;分&lt;/font&gt;" style="text;html=1;align=center;verticalAlign=middle;resizable=0;points=[];autosize=1;strokeColor=none;fillColor=none;" vertex="1" parent="414">
                    <mxGeometry x="623.5600000000004" y="590" width="60" height="60" as="geometry"/>
                </mxCell>
                <mxCell id="444" value="" style="rounded=0;whiteSpace=wrap;html=1;align=left;strokeColor=default;fontColor=default;fillColor=none;verticalAlign=top;" vertex="1" parent="414">
                    <mxGeometry x="549.02" y="590" width="67.99" height="60" as="geometry"/>
                </mxCell>
                <mxCell id="447" value="&lt;span style=&quot;font-size: 32px;&quot;&gt;食事の写真5枚までアップロード(任意)&lt;/span&gt;" style="rounded=0;whiteSpace=wrap;html=1;align=center;strokeColor=default;fontColor=default;fillColor=none;verticalAlign=middle;" vertex="1" parent="414">
                    <mxGeometry x="21.89" y="920" width="665.12" height="70" as="geometry"/>
                </mxCell>
                <mxCell id="448" value="&lt;span style=&quot;font-size: 32px;&quot;&gt;登録/編集&lt;/span&gt;" style="rounded=0;whiteSpace=wrap;html=1;align=center;strokeColor=default;fontColor=default;fillColor=none;verticalAlign=middle;" vertex="1" parent="414">
                    <mxGeometry x="170" y="1490" width="360" height="100" as="geometry"/>
                </mxCell>
                <mxCell id="344" value="" style="rounded=0;whiteSpace=wrap;html=1;" vertex="1" parent="1">
                    <mxGeometry x="647.75" y="4457.069190600522" width="747.4906233597574" height="1301.8129895561358" as="geometry"/>
                </mxCell>
                <mxCell id="345" value="&lt;font style=&quot;font-size: 18px;&quot;&gt;&amp;nbsp; &amp;nbsp; &amp;nbsp; 体重管理アプリ&lt;/font&gt;" style="rounded=0;whiteSpace=wrap;html=1;align=left;" vertex="1" parent="1">
                    <mxGeometry x="647.7569041984696" y="4453.050545051312" width="747.4930958015303" height="144.88714819985879" as="geometry"/>
                </mxCell>
                <mxCell id="346" value="&lt;font style=&quot;font-size: 18px;&quot;&gt;　　 ログアウト&amp;nbsp; &amp;nbsp; &amp;nbsp; &amp;nbsp;　　　&lt;/font&gt;" style="rounded=0;whiteSpace=wrap;html=1;align=right;strokeColor=none;fontColor=default;fillColor=none;" vertex="1" parent="1">
                    <mxGeometry x="1033.3472020655802" y="4452.729664186357" width="361.90279793441965" height="144.88714819985879" as="geometry"/>
                </mxCell>
                <mxCell id="347" value="&lt;span style=&quot;font-size: 18px;&quot;&gt;&lt;font style=&quot;color: rgb(26, 26, 26);&quot;&gt;ホーム&lt;/font&gt;&lt;/span&gt;" style="rounded=0;whiteSpace=wrap;html=1;align=center;" vertex="1" parent="1">
                    <mxGeometry x="648.3494530070359" y="5615.1128518001415" width="168.80414839159866" height="144.88714819985879" as="geometry"/>
                </mxCell>
                <mxCell id="348" value="&lt;font style=&quot;font-size: 18px; color: rgb(26, 26, 26);&quot;&gt;Ai分析&lt;/font&gt;" style="rounded=0;whiteSpace=wrap;html=1;align=center;" vertex="1" parent="1">
                    <mxGeometry x="817.1536013986346" y="5615.1128518001415" width="202.3337395104778" height="144.88714819985879" as="geometry"/>
                </mxCell>
                <mxCell id="349" value="&lt;span style=&quot;font-size: 18px;&quot;&gt;&lt;font style=&quot;color: rgb(0, 0, 255);&quot;&gt;記録&lt;/font&gt;&lt;/span&gt;" style="rounded=0;whiteSpace=wrap;html=1;align=center;" vertex="1" parent="1">
                    <mxGeometry x="1019.4873409091124" y="5615.1128518001415" width="187.88132954544372" height="144.88714819985879" as="geometry"/>
                </mxCell>
                <mxCell id="350" value="&lt;span style=&quot;font-size: 18px;&quot;&gt;マイページ&lt;/span&gt;" style="rounded=0;whiteSpace=wrap;html=1;align=center;" vertex="1" parent="1">
                    <mxGeometry x="1207.3686704545562" y="5615.1128518001415" width="187.88132954544372" height="144.88714819985879" as="geometry"/>
                </mxCell>
                <mxCell id="351" value="&lt;font style=&quot;font-size: 34px;&quot;&gt;記録&lt;/font&gt;" style="rounded=0;whiteSpace=wrap;html=1;align=left;fillColor=none;strokeColor=none;" vertex="1" parent="1">
                    <mxGeometry x="672.6314386748004" y="4622.6071312010445" width="547.605951358835" height="92.4884138381201" as="geometry"/>
                </mxCell>
                <mxCell id="368" value="&lt;font style=&quot;font-size: 24px;&quot;&gt;記録&lt;/font&gt;" style="text;html=1;align=center;verticalAlign=middle;resizable=0;points=[];autosize=1;strokeColor=none;fillColor=none;" vertex="1" parent="1">
                    <mxGeometry x="647.7460694832155" y="4390" width="70" height="40" as="geometry"/>
                </mxCell>
                <mxCell id="369" value="&lt;font style=&quot;font-size: 30px;&quot;&gt;2025/09/04&amp;nbsp; &amp;nbsp; &amp;nbsp; &amp;nbsp;　　　　　　　　　　　　　　→&lt;/font&gt;&lt;div&gt;&lt;span style=&quot;font-size: 30px;&quot;&gt;体重：50kg&lt;/span&gt;&lt;/div&gt;&lt;div&gt;&lt;span style=&quot;font-size: 30px;&quot;&gt;睡眠時間：7時間45分&lt;/span&gt;&lt;/div&gt;&lt;div&gt;&lt;span style=&quot;font-size: 30px;&quot;&gt;体調メモ&lt;/span&gt;&lt;/div&gt;&lt;div&gt;&lt;span style=&quot;font-size: 30px;&quot;&gt;今日の体調について記載する。&lt;/span&gt;&lt;/div&gt;" style="rounded=0;whiteSpace=wrap;html=1;align=left;strokeColor=default;fontColor=default;fillColor=none;verticalAlign=top;" vertex="1" parent="1">
                    <mxGeometry x="678.94" y="4715.1" width="685.12" height="200" as="geometry"/>
                </mxCell>
                <mxCell id="370" value="&lt;font style=&quot;font-size: 32px;&quot;&gt;+ 記録する&lt;/font&gt;" style="text;html=1;align=center;verticalAlign=middle;resizable=0;points=[];autosize=1;strokeColor=none;fillColor=none;" vertex="1" parent="1">
                    <mxGeometry x="1192.37" y="4630" width="180" height="50" as="geometry"/>
                </mxCell>
                <mxCell id="371" value="&lt;font style=&quot;font-size: 30px;&quot;&gt;2025/09/04&amp;nbsp; &amp;nbsp; &amp;nbsp; &amp;nbsp;　　　　　　　　　　　　　　→&lt;/font&gt;&lt;div&gt;&lt;span style=&quot;font-size: 30px;&quot;&gt;体重：50kg&lt;/span&gt;&lt;/div&gt;&lt;div&gt;&lt;span style=&quot;font-size: 30px;&quot;&gt;睡眠時間：7時間45分&lt;/span&gt;&lt;/div&gt;&lt;div&gt;&lt;span style=&quot;font-size: 30px;&quot;&gt;体調メモ&lt;/span&gt;&lt;/div&gt;&lt;div&gt;&lt;span style=&quot;font-size: 30px;&quot;&gt;今日の体調について記載する。&lt;/span&gt;&lt;/div&gt;" style="rounded=0;whiteSpace=wrap;html=1;align=left;strokeColor=default;fontColor=default;fillColor=none;verticalAlign=top;" vertex="1" parent="1">
                    <mxGeometry x="678.94" y="4960" width="685.12" height="200" as="geometry"/>
                </mxCell>
                <mxCell id="372" value="&lt;font style=&quot;font-size: 30px;&quot;&gt;2025/09/04&amp;nbsp; &amp;nbsp; &amp;nbsp; &amp;nbsp;　　　　　　　　　　　　　　→&lt;/font&gt;&lt;div&gt;&lt;span style=&quot;font-size: 30px;&quot;&gt;体重：50kg&lt;/span&gt;&lt;/div&gt;&lt;div&gt;&lt;span style=&quot;font-size: 30px;&quot;&gt;睡眠時間：7時間45分&lt;/span&gt;&lt;/div&gt;&lt;div&gt;&lt;span style=&quot;font-size: 30px;&quot;&gt;体調メモ&lt;/span&gt;&lt;/div&gt;&lt;div&gt;&lt;span style=&quot;font-size: 30px;&quot;&gt;今日の体調について記載する。&lt;/span&gt;&lt;/div&gt;" style="rounded=0;whiteSpace=wrap;html=1;align=left;strokeColor=default;fontColor=default;fillColor=none;verticalAlign=top;" vertex="1" parent="1">
                    <mxGeometry x="678.94" y="5210" width="685.12" height="200" as="geometry"/>
                </mxCell>
                <mxCell id="379" value="" style="shape=table;startSize=0;container=1;collapsible=0;childLayout=tableLayout;fontSize=16;" vertex="1" parent="1">
                    <mxGeometry x="687.75" y="5490" width="660" height="60" as="geometry"/>
                </mxCell>
                <mxCell id="380" value="" style="shape=tableRow;horizontal=0;startSize=0;swimlaneHead=0;swimlaneBody=0;strokeColor=inherit;top=0;left=0;bottom=0;right=0;collapsible=0;dropTarget=0;fillColor=none;points=[[0,0.5],[1,0.5]];portConstraint=eastwest;fontSize=16;fontColor=#FFFFFF;" vertex="1" parent="379">
                    <mxGeometry width="660" height="60" as="geometry"/>
                </mxCell>
                <mxCell id="381" value="&lt;font style=&quot;font-size: 32px;&quot;&gt;&amp;lt;&lt;/font&gt;" style="shape=partialRectangle;html=1;whiteSpace=wrap;connectable=0;strokeColor=#FFFFFF;overflow=hidden;fillColor=none;top=0;left=0;bottom=0;right=0;pointerEvents=1;fontSize=16;fontColor=#FFFFFF;" vertex="1" parent="380">
                    <mxGeometry width="132" height="60" as="geometry">
                        <mxRectangle width="132" height="60" as="alternateBounds"/>
                    </mxGeometry>
                </mxCell>
                <mxCell id="382" value="&lt;font style=&quot;font-size: 32px;&quot;&gt;1&lt;/font&gt;" style="shape=partialRectangle;html=1;whiteSpace=wrap;connectable=0;strokeColor=inherit;overflow=hidden;fillColor=none;top=0;left=0;bottom=0;right=0;pointerEvents=1;fontSize=16;" vertex="1" parent="380">
                    <mxGeometry x="132" width="132" height="60" as="geometry">
                        <mxRectangle width="132" height="60" as="alternateBounds"/>
                    </mxGeometry>
                </mxCell>
                <mxCell id="383" value="&lt;font style=&quot;font-size: 32px;&quot;&gt;2&lt;/font&gt;" style="shape=partialRectangle;html=1;whiteSpace=wrap;connectable=0;strokeColor=inherit;overflow=hidden;fillColor=none;top=0;left=0;bottom=0;right=0;pointerEvents=1;fontSize=16;" vertex="1" parent="380">
                    <mxGeometry x="264" width="131" height="60" as="geometry">
                        <mxRectangle width="131" height="60" as="alternateBounds"/>
                    </mxGeometry>
                </mxCell>
                <mxCell id="385" value="&lt;font style=&quot;font-size: 32px;&quot;&gt;3&lt;/font&gt;" style="shape=partialRectangle;html=1;whiteSpace=wrap;connectable=0;strokeColor=inherit;overflow=hidden;fillColor=none;top=0;left=0;bottom=0;right=0;pointerEvents=1;fontSize=16;" vertex="1" parent="380">
                    <mxGeometry x="395" width="133" height="60" as="geometry">
                        <mxRectangle width="133" height="60" as="alternateBounds"/>
                    </mxGeometry>
                </mxCell>
                <mxCell id="384" value="&lt;font style=&quot;font-size: 32px;&quot;&gt;&amp;gt;&lt;/font&gt;" style="shape=partialRectangle;html=1;whiteSpace=wrap;connectable=0;strokeColor=inherit;overflow=hidden;fillColor=none;top=0;left=0;bottom=0;right=0;pointerEvents=1;fontSize=16;" vertex="1" parent="380">
                    <mxGeometry x="528" width="132" height="60" as="geometry">
                        <mxRectangle width="132" height="60" as="alternateBounds"/>
                    </mxGeometry>
                </mxCell>
                <mxCell id="571" value="" style="group;strokeColor=none;" vertex="1" connectable="0" parent="1">
                    <mxGeometry x="620" y="6470" width="763" height="1370" as="geometry"/>
                </mxCell>
                <mxCell id="572" value="" style="group" vertex="1" connectable="0" parent="571">
                    <mxGeometry x="12.5" width="747.5" height="1370" as="geometry"/>
                </mxCell>
                <mxCell id="573" value="" style="rounded=0;whiteSpace=wrap;html=1;" vertex="1" parent="572">
                    <mxGeometry y="67.0691906005222" width="747.4906233597574" height="1301.8129895561358" as="geometry"/>
                </mxCell>
                <mxCell id="574" value="&lt;font style=&quot;font-size: 18px;&quot;&gt;&amp;nbsp; &amp;nbsp; &amp;nbsp; 体重管理アプリ&lt;/font&gt;" style="rounded=0;whiteSpace=wrap;html=1;align=left;" vertex="1" parent="572">
                    <mxGeometry x="0.006904198469532812" y="63.05054505131229" width="747.4930958015303" height="144.88714819985879" as="geometry"/>
                </mxCell>
                <mxCell id="598" style="edgeStyle=none;html=1;exitX=0;exitY=1;exitDx=0;exitDy=0;" edge="1" parent="572" source="575" target="574">
                    <mxGeometry relative="1" as="geometry"/>
                </mxCell>
                <mxCell id="575" value="&lt;font style=&quot;font-size: 18px;&quot;&gt;　　 ログアウト&amp;nbsp; &amp;nbsp; &amp;nbsp; &amp;nbsp;　　　&lt;/font&gt;" style="rounded=0;whiteSpace=wrap;html=1;align=right;strokeColor=none;fontColor=default;fillColor=none;" vertex="1" parent="572">
                    <mxGeometry x="385.59720206558023" y="62.72966418635689" width="361.90279793441965" height="144.88714819985879" as="geometry"/>
                </mxCell>
                <mxCell id="576" value="&lt;span style=&quot;font-size: 18px;&quot;&gt;&lt;font style=&quot;color: rgb(26, 26, 26);&quot;&gt;ホーム&lt;/font&gt;&lt;/span&gt;" style="rounded=0;whiteSpace=wrap;html=1;align=center;" vertex="1" parent="572">
                    <mxGeometry x="0.5994530070359328" y="1225.1128518001412" width="168.80414839159866" height="144.88714819985879" as="geometry"/>
                </mxCell>
                <mxCell id="577" value="&lt;font style=&quot;font-size: 18px; color: rgb(26, 26, 26);&quot;&gt;Ai分析&lt;/font&gt;" style="rounded=0;whiteSpace=wrap;html=1;align=center;" vertex="1" parent="572">
                    <mxGeometry x="169.4036013986346" y="1225.1128518001412" width="202.3337395104778" height="144.88714819985879" as="geometry"/>
                </mxCell>
                <mxCell id="578" value="&lt;span style=&quot;font-size: 18px;&quot;&gt;記録&lt;/span&gt;" style="rounded=0;whiteSpace=wrap;html=1;align=center;" vertex="1" parent="572">
                    <mxGeometry x="371.7373409091124" y="1225.1128518001412" width="187.88132954544372" height="144.88714819985879" as="geometry"/>
                </mxCell>
                <mxCell id="579" value="&lt;span style=&quot;font-size: 18px;&quot;&gt;&lt;font style=&quot;color: rgb(0, 0, 255);&quot;&gt;マイページ&lt;/font&gt;&lt;/span&gt;" style="rounded=0;whiteSpace=wrap;html=1;align=center;" vertex="1" parent="572">
                    <mxGeometry x="559.6186704545562" y="1225.1128518001412" width="187.88132954544372" height="144.88714819985879" as="geometry"/>
                </mxCell>
                <mxCell id="580" value="&lt;font style=&quot;font-size: 34px;&quot;&gt;マイページ&lt;/font&gt;" style="rounded=0;whiteSpace=wrap;html=1;align=left;fillColor=none;strokeColor=none;" vertex="1" parent="572">
                    <mxGeometry x="24.881438674800346" y="232.6071312010444" width="547.605951358835" height="92.4884138381201" as="geometry"/>
                </mxCell>
                <mxCell id="585" value="" style="group" vertex="1" connectable="0" parent="572">
                    <mxGeometry x="26.90357218175408" y="571.2059399477807" width="693.7130433612841" height="177.73335509138383" as="geometry"/>
                </mxCell>
                <mxCell id="620" value="" style="edgeStyle=none;html=1;" edge="1" parent="585">
                    <mxGeometry relative="1" as="geometry">
                        <mxPoint x="273.6725763016166" y="55.54000000000087" as="targetPoint"/>
                        <mxPoint x="271.76391382405745" y="53.92000000000007" as="sourcePoint"/>
                    </mxGeometry>
                </mxCell>
                <mxCell id="597" value="&lt;span style=&quot;font-size: 24px;&quot;&gt;マイページ&lt;/span&gt;" style="text;html=1;align=center;verticalAlign=middle;resizable=0;points=[];autosize=1;strokeColor=none;fillColor=none;" vertex="1" parent="572">
                    <mxGeometry x="0.6060694832154603" width="140" height="40" as="geometry"/>
                </mxCell>
                <mxCell id="621" value="&lt;div style=&quot;&quot;&gt;&lt;font style=&quot;font-size: 20px;&quot;&gt;メールアドレス&lt;/font&gt;&lt;/div&gt;" style="rounded=0;whiteSpace=wrap;html=1;align=left;verticalAlign=top;strokeColor=none;fillColor=none;" vertex="1" parent="572">
                    <mxGeometry x="57.5" y="360.00000000000034" width="160" height="40" as="geometry"/>
                </mxCell>
                <mxCell id="622" value="&lt;div style=&quot;&quot;&gt;&lt;span style=&quot;font-size: 30px;&quot;&gt;example@example.com&lt;/span&gt;&lt;/div&gt;&lt;div style=&quot;&quot;&gt;&lt;span style=&quot;background-color: transparent;&quot;&gt;&lt;font style=&quot;font-size: 30px;&quot;&gt;&lt;br&gt;&lt;/font&gt;&lt;/span&gt;&lt;/div&gt;" style="rounded=0;whiteSpace=wrap;html=1;align=left;verticalAlign=top;strokeColor=default;" vertex="1" parent="572">
                    <mxGeometry x="57.5" y="400.00000000000034" width="580" height="50" as="geometry"/>
                </mxCell>
                <mxCell id="624" value="&lt;div style=&quot;&quot;&gt;&lt;font style=&quot;font-size: 32px;&quot;&gt;性別&lt;/font&gt;&lt;/div&gt;" style="rounded=0;whiteSpace=wrap;html=1;align=left;verticalAlign=top;strokeColor=none;fillColor=none;" vertex="1" parent="572">
                    <mxGeometry x="56.9" y="500" width="112.5" height="50" as="geometry"/>
                </mxCell>
                <mxCell id="651" value="&lt;div style=&quot;&quot;&gt;&lt;span style=&quot;font-size: 30px;&quot;&gt;○ 男　○ 女&lt;/span&gt;&lt;/div&gt;&lt;div style=&quot;&quot;&gt;&lt;span style=&quot;background-color: transparent;&quot;&gt;&lt;font style=&quot;font-size: 30px;&quot;&gt;&lt;br&gt;&lt;/font&gt;&lt;/span&gt;&lt;/div&gt;" style="rounded=0;whiteSpace=wrap;html=1;align=left;verticalAlign=top;strokeColor=none;" vertex="1" parent="572">
                    <mxGeometry x="467.5" y="500" width="170" height="50" as="geometry"/>
                </mxCell>
                <mxCell id="627" value="&lt;div style=&quot;&quot;&gt;&lt;font style=&quot;font-size: 32px;&quot;&gt;生年月日&lt;/font&gt;&lt;/div&gt;" style="rounded=0;whiteSpace=wrap;html=1;align=left;verticalAlign=top;strokeColor=none;fillColor=none;" vertex="1" parent="572">
                    <mxGeometry x="57.5" y="640" width="160" height="40" as="geometry"/>
                </mxCell>
                <mxCell id="628" value="&lt;div style=&quot;&quot;&gt;&lt;span style=&quot;font-size: 30px;&quot;&gt;YYYY年MM月DD日&lt;/span&gt;&lt;/div&gt;" style="rounded=0;whiteSpace=wrap;html=1;align=left;verticalAlign=top;strokeColor=default;" vertex="1" parent="572">
                    <mxGeometry x="360" y="635.07" width="277.5" height="50" as="geometry"/>
                </mxCell>
                <mxCell id="652" value="&lt;div style=&quot;&quot;&gt;&lt;font style=&quot;font-size: 32px;&quot;&gt;目標体重&lt;/font&gt;&lt;/div&gt;" style="rounded=0;whiteSpace=wrap;html=1;align=left;verticalAlign=top;strokeColor=none;fillColor=none;" vertex="1" parent="572">
                    <mxGeometry x="57.5" y="790" width="160" height="40" as="geometry"/>
                </mxCell>
                <mxCell id="653" value="&lt;div style=&quot;&quot;&gt;&lt;span style=&quot;font-size: 30px;&quot;&gt;50&lt;/span&gt;&lt;/div&gt;" style="rounded=0;whiteSpace=wrap;html=1;align=center;verticalAlign=top;strokeColor=default;" vertex="1" parent="572">
                    <mxGeometry x="512.5" y="790" width="80" height="50" as="geometry"/>
                </mxCell>
                <mxCell id="654" value="&lt;div style=&quot;&quot;&gt;&lt;span style=&quot;font-size: 30px;&quot;&gt;保存する&lt;/span&gt;&lt;/div&gt;" style="rounded=0;whiteSpace=wrap;html=1;align=center;verticalAlign=top;strokeColor=default;" vertex="1" parent="572">
                    <mxGeometry x="242.5000000000001" y="1000" width="210" height="50" as="geometry"/>
                </mxCell>
                <mxCell id="656" value="&lt;font style=&quot;font-size: 32px;&quot;&gt;kg&lt;/font&gt;" style="text;html=1;align=center;verticalAlign=middle;resizable=0;points=[];autosize=1;strokeColor=none;fillColor=none;" vertex="1" parent="572">
                    <mxGeometry x="592.5" y="790" width="60" height="50" as="geometry"/>
                </mxCell>
                <mxCell id="387" value="" style="rounded=0;whiteSpace=wrap;html=1;" vertex="1" parent="1">
                    <mxGeometry x="1490" y="4407.069190600522" width="747.4906233597574" height="1301.8129895561358" as="geometry"/>
                </mxCell>
                <mxCell id="388" value="&lt;font style=&quot;font-size: 18px;&quot;&gt;&amp;nbsp; &amp;nbsp; &amp;nbsp; 体重管理アプリ&lt;/font&gt;" style="rounded=0;whiteSpace=wrap;html=1;align=left;" vertex="1" parent="1">
                    <mxGeometry x="1490.0069041984696" y="4403.050545051312" width="747.4930958015303" height="144.88714819985879" as="geometry"/>
                </mxCell>
                <mxCell id="389" value="&lt;font style=&quot;font-size: 18px;&quot;&gt;　　 ログアウト&amp;nbsp; &amp;nbsp; &amp;nbsp; &amp;nbsp;　　　&lt;/font&gt;" style="rounded=0;whiteSpace=wrap;html=1;align=right;strokeColor=none;fontColor=default;fillColor=none;" vertex="1" parent="1">
                    <mxGeometry x="1875.5972020655802" y="4402.729664186357" width="361.90279793441965" height="144.88714819985879" as="geometry"/>
                </mxCell>
                <mxCell id="390" value="&lt;span style=&quot;font-size: 18px;&quot;&gt;&lt;font style=&quot;color: rgb(26, 26, 26);&quot;&gt;ホーム&lt;/font&gt;&lt;/span&gt;" style="rounded=0;whiteSpace=wrap;html=1;align=center;" vertex="1" parent="1">
                    <mxGeometry x="1490.599453007036" y="5565.1128518001415" width="168.80414839159866" height="144.88714819985879" as="geometry"/>
                </mxCell>
                <mxCell id="391" value="&lt;font style=&quot;font-size: 18px; color: rgb(26, 26, 26);&quot;&gt;Ai分析&lt;/font&gt;" style="rounded=0;whiteSpace=wrap;html=1;align=center;" vertex="1" parent="1">
                    <mxGeometry x="1659.4036013986347" y="5565.1128518001415" width="202.3337395104778" height="144.88714819985879" as="geometry"/>
                </mxCell>
                <mxCell id="392" value="&lt;span style=&quot;font-size: 18px;&quot;&gt;&lt;font style=&quot;color: rgb(0, 0, 255);&quot;&gt;記録&lt;/font&gt;&lt;/span&gt;" style="rounded=0;whiteSpace=wrap;html=1;align=center;" vertex="1" parent="1">
                    <mxGeometry x="1861.7373409091124" y="5565.1128518001415" width="187.88132954544372" height="144.88714819985879" as="geometry"/>
                </mxCell>
                <mxCell id="393" value="&lt;span style=&quot;font-size: 18px;&quot;&gt;マイページ&lt;/span&gt;" style="rounded=0;whiteSpace=wrap;html=1;align=center;" vertex="1" parent="1">
                    <mxGeometry x="2049.618670454556" y="5565.1128518001415" width="187.88132954544372" height="144.88714819985879" as="geometry"/>
                </mxCell>
                <mxCell id="394" value="&lt;span style=&quot;color: rgb(63, 63, 63); font-size: 30px;&quot;&gt;2025/09/04&lt;/span&gt;" style="rounded=0;whiteSpace=wrap;html=1;align=left;fillColor=none;strokeColor=none;" vertex="1" parent="1">
                    <mxGeometry x="1514.8814386748004" y="4572.6071312010445" width="547.605951358835" height="92.4884138381201" as="geometry"/>
                </mxCell>
                <mxCell id="395" value="&lt;font style=&quot;font-size: 24px;&quot;&gt;記録&lt;/font&gt;" style="text;html=1;align=center;verticalAlign=middle;resizable=0;points=[];autosize=1;strokeColor=none;fillColor=none;" vertex="1" parent="1">
                    <mxGeometry x="1489.9960694832155" y="4340" width="70" height="40" as="geometry"/>
                </mxCell>
                <mxCell id="396" value="&lt;font style=&quot;font-size: 30px;&quot;&gt;&amp;nbsp;&amp;nbsp;&lt;/font&gt;&lt;span style=&quot;color: rgb(63, 63, 63); font-size: 30px; background-color: transparent;&quot;&gt;体重：50kg&lt;/span&gt;&lt;div&gt;&lt;div&gt;&lt;span style=&quot;font-size: 30px;&quot;&gt;睡眠時間：7時間45分&lt;/span&gt;&lt;/div&gt;&lt;div&gt;&lt;span style=&quot;font-size: 30px;&quot;&gt;食事：ご飯、肉、野菜&lt;/span&gt;&lt;/div&gt;&lt;div&gt;&lt;span style=&quot;font-size: 30px;&quot;&gt;運動量：有酸素運動とか&lt;/span&gt;&lt;/div&gt;&lt;div&gt;&lt;span style=&quot;font-size: 30px;&quot;&gt;体調メモ&lt;/span&gt;&lt;/div&gt;&lt;div&gt;&lt;span style=&quot;font-size: 30px;&quot;&gt;今日の体調について記載する。&lt;/span&gt;&lt;/div&gt;&lt;/div&gt;&lt;div&gt;&lt;span style=&quot;font-size: 30px;&quot;&gt;&lt;br&gt;&lt;/span&gt;&lt;/div&gt;&lt;div&gt;&lt;span style=&quot;font-size: 30px;&quot;&gt;ご飯の写真(任意で添付した場合)&lt;/span&gt;&lt;/div&gt;" style="rounded=0;whiteSpace=wrap;html=1;align=left;strokeColor=default;fontColor=default;fillColor=none;verticalAlign=top;" vertex="1" parent="1">
                    <mxGeometry x="1521.19" y="4720" width="685.12" height="760" as="geometry"/>
                </mxCell>
                <mxCell id="412" value="&lt;font style=&quot;font-size: 70px;&quot;&gt;写真(スライダー？)&lt;/font&gt;" style="rounded=0;whiteSpace=wrap;html=1;align=center;strokeColor=default;fontColor=default;fillColor=none;verticalAlign=middle;" vertex="1" parent="1">
                    <mxGeometry x="1540" y="5120" width="630" height="340" as="geometry"/>
                </mxCell>
                <mxCell id="413" value="&lt;font style=&quot;font-size: 32px;&quot;&gt;編集する&lt;/font&gt;" style="text;html=1;align=center;verticalAlign=middle;resizable=0;points=[];autosize=1;strokeColor=none;fillColor=none;" vertex="1" parent="1">
                    <mxGeometry x="2045" y="4593.85" width="150" height="50" as="geometry"/>
                </mxCell>
                <mxCell id="449" value="&lt;font style=&quot;font-size: 32px; color: rgb(255, 0, 0);&quot;&gt;削除する&lt;/font&gt;" style="text;html=1;align=center;verticalAlign=middle;resizable=0;points=[];autosize=1;strokeColor=none;fillColor=none;" vertex="1" parent="1">
                    <mxGeometry x="1880.68" y="4593.85" width="150" height="50" as="geometry"/>
                </mxCell>
            </root>
        </mxGraphModel>
    </diagram>
</mxfile>
